<?xml version="1.0" standalone="no"?>
<!DOCTYPE svg PUBLIC "-//W3C//DTD SVG 20010904//EN"
 "http://www.w3.org/TR/2001/REC-SVG-20010904/DTD/svg10.dtd">
<svg version="1.0" xmlns="http://www.w3.org/2000/svg"
 width="741.000000pt" height="361.000000pt" viewBox="0 0 741.000000 361.000000"
 preserveAspectRatio="xMidYMid meet">

<g transform="translate(0.000000,361.000000) scale(0.100000,-0.100000)"
fill="#000000" stroke="none">
<path d="M2818 2479 c-17 -18 -17 -19 1 -19 10 0 22 7 25 15 5 13 10 14 28 5
22 -11 22 -10 4 4 -25 20 -37 19 -58 -5z"/>
<path d="M812 2465 c0 -16 2 -22 5 -12 2 9 2 23 0 30 -3 6 -5 -1 -5 -18z"/>
<path d="M830 2470 c0 -11 5 -20 10 -20 6 0 10 9 10 20 0 11 -4 20 -10 20 -5
0 -10 -9 -10 -20z"/>
<path d="M1040 2486 c0 -2 7 -6 15 -10 8 -3 15 -1 15 4 0 6 -7 10 -15 10 -8 0
-15 -2 -15 -4z"/>
<path d="M1197 2458 c-4 -32 8 -52 25 -42 4 3 8 21 8 40 0 45 -26 46 -33 2z"/>
<path d="M1705 2477 c-4 -10 -5 -21 -1 -24 10 -10 18 4 13 24 -4 17 -4 17 -12
0z"/>
<path d="M2240 2480 c0 -5 7 -10 15 -10 8 0 15 5 15 10 0 6 -7 10 -15 10 -8 0
-15 -4 -15 -10z"/>
<path d="M2418 2483 c6 -2 18 -2 25 0 6 3 1 5 -13 5 -14 0 -19 -2 -12 -5z"/>
<path d="M2510 2480 c-13 -8 -12 -10 3 -10 9 0 17 5 17 10 0 12 -1 12 -20 0z"/>
<path d="M2553 2475 c-5 -7 -19 -15 -33 -18 -16 -3 -12 -4 12 -4 21 1 34 5 31
11 -4 5 3 7 15 4 14 -4 22 -1 22 6 0 16 -38 18 -47 1z"/>
<path d="M2625 2483 c6 -4 11 -15 11 -24 1 -12 -6 -15 -27 -13 -16 2 -29 0
-29 -5 0 -5 -19 -11 -42 -15 -24 -4 -50 -8 -58 -9 -8 -2 -38 -15 -67 -30 -51
-26 -84 -34 -82 -19 1 4 1 13 0 20 -1 15 -21 16 -21 1 0 -6 -7 -18 -16 -26
-13 -14 -17 -14 -24 -2 -5 7 -11 11 -14 8 -3 -3 3 -15 15 -27 11 -12 17 -27
14 -32 -4 -6 -14 -1 -25 12 -11 13 -19 17 -20 11 0 -7 5 -13 10 -13 16 0 12
-24 -8 -46 -10 -10 -28 -34 -40 -51 -29 -41 -47 -43 -24 -4 9 16 21 27 27 24
5 -4 7 -3 3 2 -4 4 2 16 14 27 12 10 18 21 15 25 -4 3 -16 -6 -28 -20 -11 -15
-26 -27 -34 -27 -8 0 -11 -7 -8 -21 5 -17 2 -20 -18 -17 -21 3 -24 -1 -26 -29
-1 -29 0 -31 14 -18 8 8 20 15 26 15 8 0 8 -3 -1 -9 -8 -4 -13 -11 -13 -15 2
-13 -32 -86 -39 -86 -5 0 -9 -8 -8 -17 0 -10 -7 -52 -16 -93 -16 -74 -27 -278
-15 -282 3 -2 9 -20 12 -41 3 -22 2 -35 -4 -32 -5 4 -9 1 -9 -4 0 -6 4 -11 8
-11 10 0 55 -106 50 -117 -2 -4 -7 -7 -13 -5 -5 2 -7 0 -3 -4 4 -4 0 -13 -10
-20 -15 -12 -15 -12 6 -7 12 3 22 9 22 14 0 20 21 7 36 -23 9 -18 25 -43 37
-55 15 -17 17 -26 9 -36 -7 -8 -9 -17 -5 -20 3 -4 3 -7 -1 -7 -3 0 -11 11 -16
24 -8 22 -12 23 -45 16 -45 -10 -60 -23 -17 -14 31 6 37 0 34 -36 -1 -10 37
-9 43 1 4 5 11 9 17 9 7 0 6 -5 -1 -14 -10 -12 -8 -13 10 -9 l22 6 -22 18
c-12 10 -17 20 -11 24 15 9 59 -27 60 -50 0 -12 13 -27 33 -38 l32 -17 -30 24
c-42 36 -28 37 30 4 28 -16 39 -26 25 -23 l-25 7 24 -17 c16 -12 25 -14 30 -7
4 6 17 8 31 5 22 -6 23 -7 4 -15 -14 -6 -12 -7 11 -4 16 2 38 0 48 -6 11 -5
40 -10 66 -10 45 -1 71 -11 71 -29 0 -5 -5 -9 -11 -9 -6 0 -17 -7 -25 -15 -9
-8 -24 -15 -35 -15 -10 0 -19 -4 -19 -9 0 -6 12 -6 28 -2 15 5 35 7 45 5 19
-2 42 30 32 46 -3 6 0 10 7 10 9 0 10 2 2 8 -17 10 -13 74 3 67 9 -3 13 5 12
23 -1 17 -3 20 -6 10 -9 -36 -20 -16 -18 34 2 55 -22 95 -51 84 -8 -3 -14 -1
-14 4 0 5 -7 7 -15 4 -8 -4 -15 -2 -15 3 0 12 48 15 55 3 3 -6 11 -10 18 -10
6 0 1 7 -11 16 -13 9 -29 13 -37 10 -8 -3 -17 -1 -20 4 -3 4 1 11 7 13 8 3 6
6 -4 6 -16 1 -23 -10 -19 -31 2 -14 -9 -9 -45 19 -22 16 -33 32 -29 41 4 12 3
12 -9 3 -11 -9 -20 -4 -45 30 -21 30 -28 46 -21 54 6 7 7 21 3 30 -4 13 -3 16
6 10 7 -4 11 -18 8 -31 -2 -12 0 -29 4 -36 15 -24 10 58 -6 96 -9 20 -13 42
-9 48 4 7 3 8 -4 4 -8 -5 -12 2 -12 21 0 22 2 25 10 13 12 -19 12 -13 0 29 -5
19 -7 31 -3 27 10 -10 33 15 33 36 0 11 -11 34 -25 52 -27 36 -25 79 3 69 13
-3 14 -2 4 4 -7 5 -10 17 -7 25 4 9 2 19 -4 23 -7 3 -8 0 -5 -9 4 -11 0 -14
-16 -11 -16 3 -20 0 -16 -10 3 -8 9 -22 13 -32 4 -11 3 -14 -5 -9 -16 10 -15
-22 1 -38 17 -17 14 -108 -3 -142 -12 -22 -12 -27 0 -34 8 -6 10 -10 5 -10 -6
0 -11 -9 -11 -21 0 -18 2 -18 12 -4 11 14 12 14 18 0 3 -9 2 -13 -4 -10 -10 6
-7 -38 5 -67 4 -10 3 -18 -2 -18 -9 0 -32 59 -41 105 -10 51 -13 227 -4 238 5
7 8 21 6 32 -3 21 53 145 84 184 15 19 21 21 28 10 14 -23 13 -39 -2 -39 -9 0
-12 4 -9 10 4 6 -1 7 -11 3 -14 -5 -14 -7 -1 -14 12 -7 13 -16 5 -50 -8 -30
-8 -43 1 -52 10 -9 12 -7 11 13 -1 14 -2 36 -1 50 2 23 3 24 15 8 14 -19 46
-25 46 -9 0 4 -9 20 -21 35 -11 14 -17 26 -14 26 4 0 1 7 -6 16 -12 14 -9 20
16 41 39 32 78 48 83 34 2 -6 8 -11 13 -11 4 0 6 7 3 15 -4 10 -2 13 8 10 7
-3 22 0 31 7 15 11 18 30 19 98 1 47 6 93 12 103 12 19 -1 48 -25 55 -8 2 -10
0 -4 -5z m-298 -110 c-4 -3 -1 -13 6 -21 8 -10 8 -13 1 -9 -7 4 -15 -1 -18
-10 -5 -11 -10 -13 -17 -6 -8 8 -5 17 7 32 10 11 20 21 23 21 2 0 1 -3 -2 -7z
m80 -570 c-3 -10 -5 -4 -5 12 0 17 2 24 5 18 2 -7 2 -21 0 -30z"/>
<path d="M2697 2483 c-4 -3 -2 -12 4 -19 7 -9 7 -19 -1 -33 -7 -14 -7 -21 0
-21 5 0 10 5 10 11 0 5 4 8 9 5 5 -3 9 -47 9 -97 0 -96 8 -114 46 -103 11 4
16 2 12 -4 -3 -5 1 -13 10 -16 8 -3 12 -2 9 4 -10 16 7 12 45 -11 57 -35 147
-139 120 -139 -5 0 -10 7 -10 15 0 32 -19 13 -25 -26 -5 -29 -11 -39 -21 -35
-8 3 -14 1 -14 -5 0 -21 35 -3 38 19 4 26 22 20 22 -7 0 -20 -33 -54 -43 -44
-4 3 -7 1 -7 -5 0 -16 6 -15 37 5 l26 17 -5 -27 c-4 -19 -1 -27 8 -27 16 0 19
36 5 45 -5 3 -9 19 -9 35 1 24 4 28 15 19 16 -14 17 -32 1 -24 -7 4 -6 1 3 -7
26 -22 31 -47 36 -182 4 -94 2 -127 -6 -122 -11 7 -14 -3 -11 -42 2 -26 -57
-152 -71 -152 -6 0 -8 -4 -5 -9 3 -5 -1 -14 -9 -21 -11 -9 -16 -7 -27 9 -7 12
-17 21 -22 21 -4 0 -3 -6 3 -13 6 -8 7 -18 3 -22 -4 -5 -1 -5 7 0 9 5 12 3 9
-6 -2 -8 -19 -21 -37 -29 -17 -9 -28 -20 -24 -25 4 -4 3 -5 -4 -1 -6 3 -15 2
-18 -4 -4 -6 -16 -8 -27 -4 -15 4 -18 3 -13 -6 5 -9 4 -11 -3 -6 -6 4 -22 2
-34 -4 -21 -10 -22 -10 -5 4 28 22 3 63 -35 57 -5 0 -8 4 -8 10 0 8 -4 9 -13
0 -8 -6 -17 -8 -20 -4 -4 3 -7 -1 -7 -10 0 -9 -8 -17 -17 -18 -11 0 -13 -3 -5
-6 6 -2 12 -12 12 -22 0 -22 19 -41 42 -41 12 0 15 5 11 16 -5 13 -7 13 -14 2
-7 -11 -11 -10 -19 2 -12 19 -13 50 -1 50 5 0 12 -8 14 -17 4 -15 5 -16 6 -2
0 9 12 19 25 21 18 4 23 1 21 -11 -2 -9 -4 -18 -4 -21 -1 -3 -6 2 -11 10 -8
13 -10 13 -10 -2 0 -9 7 -24 16 -32 12 -12 15 -35 14 -98 -2 -87 6 -138 21
-138 6 0 5 9 -1 20 -12 23 -14 22 69 37 30 6 66 7 80 3 15 -5 19 -9 9 -9 -27
-1 -68 -23 -62 -32 8 -13 -10 -11 -25 4 -11 10 -13 10 -7 0 4 -7 2 -13 -4 -13
-6 0 -13 7 -16 15 -4 8 -13 15 -22 15 -11 0 -9 -5 8 -20 13 -11 31 -20 40 -20
10 0 33 -2 51 -5 29 -4 30 -3 9 4 -24 9 -23 9 10 11 l35 3 -35 7 c-19 4 -27 8
-18 9 38 3 114 35 137 57 13 13 28 24 33 24 5 0 7 8 4 18 -4 12 3 27 19 42 14
13 25 21 25 17 0 -3 11 4 25 17 14 13 25 28 25 34 0 6 8 17 18 24 9 7 28 34
41 60 14 26 28 45 32 43 3 -3 7 7 7 21 0 15 5 30 12 34 7 4 9 13 6 19 -4 6 -5
11 -2 11 3 0 12 -12 20 -27 l15 -28 1 24 c0 14 -7 33 -17 43 -20 22 -10 24 12
2 9 -9 17 -15 19 -13 6 9 -7 98 -14 94 -7 -4 -4 175 4 232 2 12 -1 24 -6 25
-6 2 -6 17 -1 38 l9 35 9 -45 c4 -25 10 -37 12 -27 3 9 0 32 -6 50 -9 29 -15
82 -12 114 1 7 8 10 19 6 14 -5 15 -3 5 8 -7 7 -13 22 -13 34 0 14 -6 21 -20
21 -23 0 -25 -7 -8 -24 9 -9 9 -15 -1 -24 -11 -11 -12 -10 -6 1 6 10 4 12 -4
7 -9 -6 -8 -14 3 -32 18 -26 21 -89 6 -99 -6 -4 -10 5 -10 19 0 14 -13 53 -29
86 -16 33 -25 58 -20 54 5 -3 9 7 9 23 0 15 3 52 6 81 6 43 4 52 -9 52 -8 0
-18 -7 -21 -16 -5 -12 -10 -14 -20 -5 -7 6 -15 8 -18 5 -3 -2 -5 6 -5 20 0 30
-28 60 -48 52 -9 -3 -27 0 -40 6 -28 13 -58 -3 -34 -17 8 -5 10 -4 5 3 -10 17
13 15 30 -3 10 -10 11 -15 3 -15 -8 0 -8 -4 2 -16 7 -8 21 -13 30 -11 10 3 23
-1 30 -9 8 -10 8 -14 1 -14 -7 0 -9 -7 -5 -17 4 -11 3 -14 -6 -9 -7 4 -9 17
-6 29 5 16 4 18 -3 8 -8 -11 -17 -8 -48 15 -22 15 -45 35 -51 43 -7 8 -13 12
-13 9 0 -4 -28 4 -62 18 -34 13 -70 24 -80 24 -10 0 -18 4 -18 8 0 5 -20 10
-45 11 -73 3 -83 5 -78 17 5 13 -21 37 -30 27z m521 -237 c3 -20 -1 -26 -16
-26 -22 0 -59 37 -48 48 4 4 16 -3 26 -16 11 -13 21 -18 25 -12 3 5 2 10 -2
10 -5 0 -14 9 -20 20 -12 17 -11 18 10 11 14 -5 23 -18 25 -35z m2 -58 c0 -6
-6 -5 -15 2 -8 7 -15 14 -15 16 0 2 7 1 15 -2 8 -4 15 -11 15 -16z m70 -550
c0 -5 -4 -8 -10 -8 -5 0 -10 10 -10 23 0 18 2 19 10 7 5 -8 10 -18 10 -22z
m-260 -367 c0 -18 -31 -40 -47 -34 -12 5 -15 2 -10 -10 4 -11 2 -14 -9 -10 -7
3 -14 8 -14 12 0 4 55 40 78 50 1 1 2 -3 2 -8z m-79 -58 c13 -15 11 -16 -11
-10 -14 4 -29 7 -35 7 -10 0 15 20 26 20 4 0 13 -8 20 -17z"/>
<path d="M3082 2476 c10 -7 15 -16 11 -19 -3 -4 1 -7 10 -7 10 0 17 4 17 8 0
13 -23 32 -39 32 -14 -1 -13 -3 1 -14z"/>
<path d="M3185 2480 c-3 -5 -1 -10 4 -10 6 0 11 5 11 10 0 6 -2 10 -4 10 -3 0
-8 -4 -11 -10z"/>
<path d="M3433 2483 c-7 -3 -13 -12 -13 -21 0 -11 3 -13 8 -6 4 6 14 13 22 16
7 2 10 7 5 10 -6 3 -16 3 -22 1z"/>
<path d="M4075 2480 c-4 -6 7 -10 25 -10 18 0 29 4 25 10 -3 6 -15 10 -25 10
-10 0 -22 -4 -25 -10z"/>
<path d="M4290 2480 c0 -5 7 -7 15 -4 8 4 15 8 15 10 0 2 -7 4 -15 4 -8 0 -15
-4 -15 -10z"/>
<path d="M4481 2474 c0 -11 3 -14 6 -6 3 7 2 16 -1 19 -3 4 -6 -2 -5 -13z"/>
<path d="M4534 2463 c-3 -16 -7 -34 -10 -40 -2 -7 3 -13 11 -13 13 0 15 -57
15 -417 1 -310 4 -434 14 -480 7 -35 10 -60 5 -58 -4 3 -11 0 -14 -6 -4 -5
-14 -8 -22 -5 -8 3 -11 1 -8 -4 3 -6 0 -13 -8 -16 -15 -5 -17 -27 -4 -41 4 -4
10 3 13 14 5 17 10 20 28 14 11 -5 26 -6 31 -5 6 2 19 -12 30 -32 10 -20 44
-59 75 -87 30 -28 54 -55 52 -60 -2 -6 3 -6 10 1 8 6 18 8 24 4 15 -10 25 -42
13 -42 -6 0 -7 -5 -4 -10 3 -5 11 -10 16 -10 6 0 8 4 4 9 -3 5 5 12 17 14 l23
4 -22 2 c-13 0 -23 6 -23 12 0 7 7 8 18 4 9 -3 30 -9 45 -12 21 -4 25 -8 15
-15 -8 -6 0 -7 25 -3 27 4 37 3 32 -4 -3 -6 -2 -11 4 -11 5 0 13 4 16 10 13
20 25 9 19 -17 -3 -16 -2 -23 3 -17 4 6 22 10 39 9 28 -3 30 -1 26 26 -2 16 0
29 6 29 5 0 13 12 17 27 3 15 12 31 18 35 6 4 8 11 3 15 -4 4 -13 0 -21 -10
-12 -16 -13 -16 -19 5 -10 38 -7 47 14 43 16 -3 20 2 20 21 0 13 5 24 11 24 6
0 9 -33 8 -92 l-2 -93 39 3 c36 3 98 16 128 28 7 3 13 -2 13 -11 0 -10 -6 -13
-19 -9 -10 3 -18 1 -18 -5 0 -6 3 -10 8 -10 26 4 32 -5 7 -11 l-30 -9 30 2
c25 2 30 6 31 30 1 31 6 38 27 41 19 2 83 51 126 96 l34 35 -27 -37 c-15 -21
-23 -38 -19 -38 5 0 14 10 22 22 l14 22 18 -23 c18 -22 40 -21 38 2 0 9 -2 9
-6 0 -8 -21 -41 19 -38 47 4 40 5 41 16 35 6 -4 9 -1 8 6 -4 20 10 71 19 65
12 -7 13 21 21 484 5 245 12 460 16 477 8 38 0 67 -16 58 -8 -5 -8 -10 0 -18
6 -6 10 -22 10 -36 -1 -25 -2 -24 -9 4 -4 17 -8 23 -9 14 -1 -21 -41 -29 -145
-29 l-81 0 0 -428 0 -427 -25 -50 c-14 -27 -31 -49 -37 -48 -7 2 -13 -3 -13
-11 0 -20 -44 -46 -61 -36 -14 9 -15 9 37 25 8 3 13 9 10 14 -3 5 0 14 8 20
10 8 15 8 18 1 1 -5 9 -1 16 11 8 12 9 18 3 14 -6 -3 -11 -2 -11 4 0 5 6 11
13 14 10 4 10 7 0 18 -11 11 -13 10 -13 -3 0 -9 -7 -15 -16 -14 -9 0 -19 -6
-21 -14 -4 -13 -3 -13 6 0 5 8 14 11 18 6 4 -5 -1 -13 -11 -20 -11 -6 -31 -22
-44 -36 -13 -14 -28 -24 -33 -23 -5 2 -9 -2 -9 -8 0 -5 -4 -8 -9 -4 -5 3 -12
1 -16 -4 -3 -6 3 -8 13 -6 10 2 25 -1 33 -6 11 -7 8 -9 -11 -10 -14 -1 -31 -2
-37 -2 -7 1 -13 -3 -13 -8 0 -5 -5 -9 -10 -9 -6 0 -22 -11 -35 -25 -19 -18
-25 -35 -25 -70 0 -28 4 -44 10 -40 6 3 10 3 10 -1 0 -15 -35 -83 -43 -84 -5
0 -5 5 -2 10 4 6 7 64 8 128 0 72 4 120 11 124 8 5 7 8 -1 8 -7 0 -13 5 -13
11 0 5 5 7 11 3 8 -4 8 0 0 15 -7 11 -21 21 -31 21 -24 0 -25 -8 -3 -32 9 -10
11 -18 5 -18 -6 0 -13 4 -16 9 -8 13 -49 8 -54 -6 -2 -7 4 -13 15 -13 15 0 16
2 3 10 -8 5 -10 10 -5 10 6 0 17 -5 25 -10 11 -7 11 -10 2 -10 -7 0 -10 -4 -7
-10 9 -15 -2 -12 -45 13 -31 17 -38 26 -33 42 5 17 4 18 -9 7 -13 -10 -19 -5
-37 38 -12 29 -19 60 -16 71 4 11 2 19 -5 19 -7 0 -10 117 -10 406 1 223 -1
409 -4 412 -4 3 -58 4 -121 3 l-115 -2 0 35 c0 42 -17 48 -26 9z m56 -1037 c0
-11 -19 -15 -25 -6 -3 5 1 10 9 10 9 0 16 -2 16 -4z m410 -21 c0 -8 -7 -15
-15 -15 -26 0 -18 20 13 29 1 1 2 -6 2 -14z"/>
<path d="M4594 2479 c-3 -5 6 -9 20 -9 31 0 34 6 6 13 -11 3 -23 1 -26 -4z"/>
<path d="M4745 2481 c3 -5 -3 -12 -12 -14 -15 -4 -15 -5 -2 -6 9 0 22 6 29 14
10 12 9 15 -4 15 -10 0 -15 -4 -11 -9z"/>
<path d="M5420 2480 c0 -5 4 -10 8 -10 5 0 9 -7 9 -15 0 -10 -10 -15 -29 -15
-18 0 -28 5 -28 14 0 8 -4 18 -10 21 -17 10 -28 -4 -23 -26 6 -20 11 -21 77
-15 39 3 77 6 84 6 6 0 12 5 12 10 0 6 -17 8 -42 5 -33 -4 -37 -3 -18 4 25 9
25 9 2 10 -13 1 -20 6 -17 11 3 6 -1 10 -9 10 -9 0 -16 -4 -16 -10z"/>
<path d="M5840 2480 c0 -5 6 -10 12 -10 7 0 2 -7 -10 -16 -12 -8 -27 -12 -32
-9 -6 3 -10 -1 -10 -9 0 -21 20 -20 36 1 7 10 16 14 20 10 5 -4 2 -12 -6 -18
-11 -7 -6 -8 15 -3 17 4 41 16 53 28 13 11 33 20 45 19 20 -3 19 -2 -3 8 -19
8 -27 7 -35 -5 -11 -15 -65 -11 -65 5 0 5 -4 9 -10 9 -5 0 -10 -4 -10 -10z
m47 -26 c-3 -3 -12 -4 -19 -1 -8 3 -5 6 6 6 11 1 17 -2 13 -5z"/>
<path d="M6004 2475 c8 -8 21 -15 28 -15 8 1 6 6 -6 15 -26 20 -42 19 -22 0z"/>
<path d="M6165 2480 c-6 -10 24 -50 37 -50 5 0 8 8 8 17 0 9 -3 13 -7 10 -9
-9 -34 13 -27 24 3 5 3 9 0 9 -3 0 -7 -4 -11 -10z"/>
<path d="M6196 2478 c3 -4 12 -8 20 -8 8 0 14 4 14 8 0 4 -9 8 -19 8 -11 0
-17 -4 -15 -8z"/>
<path d="M6328 2483 c7 -3 16 -2 19 1 4 3 -2 6 -13 5 -11 0 -14 -3 -6 -6z"/>
<path d="M6480 2468 c0 -17 3 -19 9 -9 5 7 14 10 20 7 6 -4 9 -12 6 -17 -4 -5
-1 -9 4 -9 15 0 14 19 -3 36 -21 21 -36 17 -36 -8z"/>
<path d="M893 2473 c9 -2 23 -2 30 0 6 3 -1 5 -18 5 -16 0 -22 -2 -12 -5z"/>
<path d="M1155 2471 c4 -8 12 -28 16 -45 l7 -31 1 31 c1 19 -6 37 -16 45 -14
12 -16 12 -8 0z"/>
<path d="M1521 2464 c0 -11 3 -14 6 -6 3 7 2 16 -1 19 -3 4 -6 -2 -5 -13z"/>
<path d="M1608 2473 c7 -3 16 -2 19 1 4 3 -2 6 -13 5 -11 0 -14 -3 -6 -6z"/>
<path d="M1778 2455 c-3 -15 -1 -25 6 -25 6 0 11 11 11 25 0 14 -3 25 -6 25
-4 0 -9 -11 -11 -25z"/>
<path d="M1852 2472 c-12 -2 -27 -12 -32 -23 -10 -17 -7 -19 19 -19 22 0 29 4
25 14 -3 9 2 16 13 18 26 5 3 15 -25 10z"/>
<path d="M2745 2470 c-3 -4 6 -10 20 -12 14 -3 25 -2 25 2 0 11 -39 20 -45 10z"/>
<path d="M2961 2471 c-23 -15 -2 -31 40 -29 46 2 49 8 12 26 -32 14 -34 14
-52 3z"/>
<path d="M3581 2456 l-1 -29 223 7 c122 4 226 11 231 16 4 4 -25 6 -65 4 -41
-3 -142 -8 -226 -11 l-151 -6 -5 24 c-4 21 -4 21 -6 -5z"/>
<path d="M3988 2473 c7 -3 16 -2 19 1 4 3 -2 6 -13 5 -11 0 -14 -3 -6 -6z"/>
<path d="M4826 2472 c6 -4 13 -15 17 -24 7 -21 27 -24 27 -5 0 18 -21 37 -39
37 -10 0 -12 -3 -5 -8z"/>
<path d="M5264 2449 c-10 -21 -12 -34 -6 -38 6 -3 10 -15 9 -26 -1 -11 5 -21
16 -23 9 -2 17 2 17 8 0 6 -4 8 -10 5 -6 -3 -10 5 -10 19 0 14 5 28 10 31 6 4
8 10 5 15 -3 5 5 11 17 13 19 3 17 5 -7 6 -26 2 -27 3 -10 11 17 7 17 9 3 9
-10 1 -25 -13 -34 -30z"/>
<path d="M5498 2473 c7 -3 16 -2 19 1 4 3 -2 6 -13 5 -11 0 -14 -3 -6 -6z"/>
<path d="M6387 2463 c14 -13 19 -23 13 -29 -7 -7 3 -9 28 -7 32 2 33 1 12 -6
l-25 -9 26 -1 c15 -1 29 5 33 14 3 8 1 15 -4 15 -5 0 -7 6 -5 13 3 7 -5 12
-22 13 -16 1 -39 5 -53 9 l-25 8 22 -20z"/>
<path d="M1632 2463 c-12 -2 -19 -9 -16 -15 4 -6 -1 -8 -15 -3 -13 4 -21 2
-21 -5 0 -6 5 -8 10 -5 6 3 10 -1 10 -9 0 -8 4 -18 10 -21 6 -3 7 1 4 9 -4 11
0 16 11 16 9 0 13 5 10 10 -3 6 3 10 14 10 11 0 23 5 26 10 6 10 -2 11 -43 3z"/>
<path d="M2370 2448 c23 -25 117 -33 117 -10 0 11 -11 12 -46 8 -41 -6 -44 -5
-28 8 16 12 14 14 -23 14 l-40 1 20 -21z"/>
<path d="M3360 2460 c0 -5 9 -10 19 -10 11 0 23 5 26 10 4 6 -5 10 -19 10 -14
0 -26 -4 -26 -10z"/>
<path d="M3478 2463 c6 -2 12 -16 12 -29 0 -14 -3 -23 -7 -21 -5 3 -8 -39 -8
-94 0 -54 2 -99 5 -99 3 0 113 -2 245 -3 244 -3 295 -11 295 -44 0 -7 5 -13
11 -13 5 0 7 5 3 11 -5 8 -1 8 14 0 31 -17 64 -63 59 -83 -3 -10 -2 -18 1 -18
12 0 13 -68 2 -75 -6 -4 -8 -16 -4 -27 4 -14 2 -18 -5 -14 -6 4 -12 2 -12 -3
-1 -6 -2 -15 -3 -20 -1 -13 -43 -51 -55 -51 -5 0 -11 -4 -13 -9 -1 -4 -14 -12
-27 -16 -18 -5 -22 -4 -16 6 5 8 -1 6 -13 -5 -22 -19 -59 -15 -46 5 5 9 -5 10
-37 5 -24 -4 -48 -14 -53 -23 -5 -9 -8 -53 -7 -99 2 -68 -1 -84 -14 -92 -16
-8 -16 -9 -1 -15 10 -4 15 -3 11 3 -4 6 5 5 20 -2 19 -9 28 -9 37 0 13 13 48
16 48 4 0 -4 -10 -12 -22 -17 -28 -13 -32 -42 -7 -56 17 -9 19 -7 14 14 -7 25
16 44 37 31 6 -4 5 3 -1 15 -11 20 -9 21 24 21 24 0 35 -4 35 -15 0 -9 -9 -15
-21 -15 -15 0 -19 -4 -15 -16 3 -9 6 -19 6 -22 0 -4 7 4 16 16 8 12 25 23 37
23 17 1 18 2 5 6 -10 2 -18 11 -18 19 0 10 14 14 53 14 39 0 48 3 37 11 -13 9
-13 10 0 6 8 -2 21 3 29 10 7 8 20 12 28 9 8 -3 12 -2 9 3 -3 4 6 13 19 19 15
7 26 8 30 2 6 -9 -8 -14 -28 -11 -5 1 -6 -3 -2 -8 3 -6 13 -7 23 -4 15 6 15 5
3 -10 -7 -9 -18 -14 -24 -10 -6 3 -7 1 -3 -5 4 -7 1 -12 -8 -12 -9 0 -16 -5
-16 -11 0 -5 5 -7 12 -3 7 4 8 3 4 -5 -4 -6 -11 -9 -16 -6 -5 3 -13 -2 -18
-11 -5 -9 -13 -16 -18 -16 -5 0 -19 -4 -31 -9 -12 -4 -51 -14 -87 -21 l-64
-13 69 -119 c38 -66 67 -121 64 -124 -2 -3 3 -11 13 -19 9 -8 11 -11 3 -7 -9
4 -12 3 -7 -4 7 -12 -14 -52 -28 -52 -5 0 -15 8 -23 18 -13 15 -13 15 -3 -6 6
-12 9 -26 6 -31 -3 -4 8 -8 23 -8 22 0 28 4 23 16 -5 14 -4 14 13 1 17 -14 18
-14 8 5 -21 40 -1 49 23 10 l22 -38 139 1 c76 0 141 1 145 1 4 1 -13 35 -38
77 -24 41 -42 79 -39 85 4 5 3 15 -1 21 -12 19 -12 48 0 48 8 0 8 2 0 8 -6 4
-14 16 -18 27 l-7 20 -15 -20 c-13 -18 -13 -20 4 -25 12 -3 18 -12 16 -25 -2
-10 2 -25 8 -32 6 -8 8 -16 6 -19 -3 -3 -17 15 -30 39 -23 41 -24 47 -11 73
l14 29 -20 -25 -20 -25 -7 32 c-4 19 -11 30 -17 26 -5 -3 -7 -1 -3 5 3 5 3 12
-1 14 -14 6 -63 88 -53 88 5 0 10 -5 10 -12 0 -6 3 -8 7 -4 5 4 0 13 -10 21
-14 10 -15 14 -4 18 16 6 41 -29 27 -38 -12 -8 9 -55 26 -55 6 0 15 -8 19 -17
6 -16 8 -15 26 7 l20 25 -6 -24 c-5 -16 -4 -21 4 -17 12 8 16 56 5 56 -4 0
-12 -7 -18 -16 -11 -14 -13 -13 -24 10 -10 22 -9 26 4 26 9 0 12 -5 8 -12 -5
-7 -3 -8 5 -3 24 14 -6 30 -34 17 -15 -7 -25 -8 -25 -2 0 6 5 10 11 10 6 0 3
7 -5 16 -17 16 -22 39 -7 30 10 -7 61 16 61 27 0 5 -4 5 -10 2 -5 -3 -10 -2
-10 4 0 5 6 12 13 14 8 4 7 6 -3 6 -11 1 -8 8 10 22 l25 20 -25 -12 c-14 -7
-30 -12 -36 -11 -7 1 -14 -4 -18 -13 -3 -8 -1 -15 3 -15 5 0 12 6 14 13 3 7 6
5 6 -5 1 -10 -5 -18 -13 -18 -8 0 -16 -7 -20 -15 -3 -8 -11 -15 -17 -15 -8 0
-9 4 0 13 6 8 7 18 3 22 -4 5 0 4 8 0 13 -8 13 -7 0 9 -13 16 -12 20 4 32 11
7 24 11 29 7 6 -4 8 0 4 10 -4 11 1 20 13 27 11 6 27 26 35 45 15 30 20 33 41
25 15 -6 26 -6 30 2 4 7 3 8 -4 4 -7 -4 -12 -3 -12 3 0 21 19 20 34 -1 9 -12
16 -17 16 -11 0 7 -4 14 -9 17 -5 3 -4 28 1 57 6 32 6 54 0 58 -5 3 -12 13
-16 21 -3 8 -4 2 -1 -14 4 -17 0 -38 -11 -53 -9 -14 -12 -23 -6 -19 5 3 13 -1
16 -10 9 -23 7 -31 -3 -15 -7 11 -11 9 -20 -8 -7 -12 -16 -19 -21 -16 -10 6
11 67 28 78 6 4 12 13 12 18 0 6 -3 8 -8 5 -4 -2 -8 30 -9 72 -3 101 -6 121
-27 160 -9 17 -14 32 -11 32 2 0 -16 19 -40 41 -31 29 -42 45 -36 53 7 8 4 12
-10 13 -11 1 -17 -2 -14 -8 4 -5 -9 0 -27 10 -95 55 -215 72 -495 71 -206 -1
-213 -1 -213 19 0 10 6 22 13 24 6 3 -1 5 -18 5 -16 0 -24 -2 -17 -5z m422
-613 c0 -5 -15 -10 -32 -9 -28 0 -30 2 -13 9 28 12 45 12 45 0z m361 -273
c-10 -9 -11 -8 -5 6 3 10 9 15 12 12 3 -3 0 -11 -7 -18z m27 -32 c-3 -3 -9 2
-12 12 -6 14 -5 15 5 6 7 -7 10 -15 7 -18z"/>
<path d="M3848 2463 c7 -3 16 -2 19 1 4 3 -2 6 -13 5 -11 0 -14 -3 -6 -6z"/>
<path d="M4191 2456 c-9 -11 -6 -15 14 -18 30 -6 39 1 24 19 -14 17 -24 17
-38 -1z"/>
<path d="M5584 2454 c3 -8 1 -25 -5 -36 -9 -16 -8 -19 2 -13 9 6 11 3 6 -9 -8
-21 1 -66 14 -66 13 0 22 66 15 105 -5 22 -13 35 -23 35 -10 0 -13 -6 -9 -16z"/>
<path d="M5760 2462 c0 -5 7 -13 16 -16 10 -4 14 -1 12 6 -5 15 -28 23 -28 10z"/>
<path d="M6055 2460 c3 -5 8 -10 11 -10 2 0 4 5 4 10 0 6 -5 10 -11 10 -5 0
-7 -4 -4 -10z"/>
<path d="M6328 2463 c6 -2 18 -2 25 0 6 3 1 5 -13 5 -14 0 -19 -2 -12 -5z"/>
<path d="M860 2432 c0 -13 4 -20 10 -17 6 3 10 12 10 20 0 7 10 16 23 18 13 3
9 4 -10 4 -28 -1 -33 -5 -33 -25z"/>
<path d="M1140 2436 c0 -14 5 -26 10 -26 6 0 10 9 10 19 0 11 -4 23 -10 26 -6
4 -10 -5 -10 -19z"/>
<path d="M2913 2444 c0 -16 13 -19 21 -5 3 5 0 11 -7 14 -8 3 -14 -1 -14 -9z"/>
<path d="M3165 2450 c-3 -5 4 -21 17 -35 l23 -24 2 34 c3 29 0 35 -16 35 -11
0 -23 -4 -26 -10z"/>
<path d="M4578 2453 c7 -3 16 -2 19 1 4 3 -2 6 -13 5 -11 0 -14 -3 -6 -6z"/>
<path d="M5934 2449 c-3 -6 -20 -17 -36 -23 -27 -12 -28 -14 -12 -27 12 -9 15
-10 10 -1 -6 11 5 17 27 13 4 0 7 4 7 10 0 7 8 18 18 25 9 7 12 14 5 14 -6 0
-15 -5 -19 -11z"/>
<path d="M6120 2451 c0 -8 -8 -11 -20 -8 -11 3 -20 1 -20 -4 0 -5 -13 -9 -29
-9 -16 0 -41 -4 -56 -10 -14 -5 -39 -11 -55 -12 -16 -1 -27 -5 -24 -9 2 -4
-10 -12 -26 -18 -25 -8 -37 -7 -63 7 -40 22 -61 22 -65 0 -4 -19 13 -25 23 -8
3 6 11 10 16 10 6 0 8 -4 5 -8 -2 -4 5 -14 17 -22 20 -12 21 -12 8 3 -8 10 -9
17 -3 17 20 0 24 -22 7 -38 -10 -10 -15 -12 -11 -6 3 7 -1 15 -10 18 -8 3 -13
2 -10 -3 3 -4 -15 -48 -40 -96 -44 -86 -45 -89 -43 -178 1 -53 7 -101 15 -116
8 -14 14 -31 14 -37 0 -7 24 -36 53 -66 38 -40 78 -67 142 -98 50 -24 95 -44
101 -46 35 -6 134 -48 134 -56 0 -5 5 -6 10 -3 17 10 99 -56 106 -85 0 -3 5
-14 9 -24 6 -13 4 -21 -4 -24 -9 -3 -9 -7 -1 -17 14 -17 3 -40 -35 -75 -25
-23 -27 -23 -21 -4 4 15 2 21 -9 21 -8 0 -15 -4 -15 -9 0 -5 -12 -8 -27 -6
-23 2 -27 7 -25 25 3 18 0 22 -15 16 -34 -12 -35 -15 -12 -39 12 -13 17 -24
11 -24 -7 0 -12 -5 -12 -10 0 -6 11 -3 25 6 18 12 25 13 25 4 0 -9 7 -7 20 5
18 16 20 16 20 2 0 -11 -12 -18 -37 -23 -56 -10 -61 -17 -56 -83 4 -60 -10
-91 -21 -48 -3 13 -13 24 -21 24 -9 0 -14 -5 -12 -11 3 -6 10 -10 16 -9 11 3
15 -20 13 -67 -2 -24 -1 -24 13 5 l14 30 -3 -33 c-3 -17 0 -32 5 -32 5 0 9 5
9 10 0 6 12 10 28 9 l27 -1 -25 -8 -25 -8 25 -2 25 -2 -24 -7 c-14 -4 -26 -12
-27 -19 -1 -7 0 -8 3 -2 2 5 14 10 24 10 13 0 18 -5 14 -13 -4 -6 1 -3 9 7 9
11 16 25 16 32 0 21 28 24 62 6 l33 -16 -40 -12 -40 -11 45 -7 c25 -4 56 -3
70 3 20 8 16 9 -25 5 -27 -2 -43 -1 -35 2 8 3 20 12 26 20 7 9 20 10 45 5 30
-7 35 -5 36 11 1 12 -3 18 -10 15 -7 -3 -20 -8 -29 -12 -11 -4 -18 -3 -18 4 0
6 -7 11 -16 11 -8 0 -12 -4 -9 -10 8 -12 -5 -13 -24 -1 -11 7 -10 11 6 20 11
5 23 7 27 3 4 -3 10 -2 14 3 13 19 51 35 69 29 13 -4 14 -3 5 4 -10 7 -7 13
13 26 14 9 38 34 54 56 16 22 32 36 36 32 5 -4 5 -2 2 4 -4 7 1 29 10 50 56
135 9 316 -107 407 -27 20 -51 37 -53 37 -3 0 -34 13 -69 28 -35 16 -79 35
-98 42 -48 18 -58 29 -40 40 19 12 13 12 -29 0 -19 -5 -31 -7 -27 -3 3 3 1 12
-5 20 -14 16 2 18 19 1 8 -8 15 -8 27 2 12 10 18 10 30 0 10 -8 15 -9 15 -1 0
12 -44 26 -59 17 -5 -3 -17 -3 -26 1 -16 5 -15 8 5 23 21 16 21 40 0 40 -11 0
-27 -49 -25 -76 1 -19 -1 -21 -22 -11 -13 5 -23 14 -23 19 0 5 -4 7 -9 4 -7
-5 -28 14 -60 57 -9 12 -10 17 -2 17 6 0 15 -8 18 -17 4 -9 15 -25 26 -36 19
-19 19 -19 12 4 -7 21 -6 22 8 10 18 -14 47 -9 47 10 0 8 -4 8 -15 -1 -18 -15
-19 -1 -1 22 7 10 16 15 19 11 4 -3 7 1 7 10 0 9 7 17 15 17 8 0 15 7 15 15 0
8 -3 15 -6 15 -13 0 -54 -46 -54 -60 0 -13 -2 -13 -9 0 -6 8 -7 18 -5 22 7 10
-7 10 -25 -1 -8 -5 -11 -16 -6 -30 3 -11 2 -21 -3 -21 -5 0 -12 9 -15 20 -3
11 -13 20 -22 20 -23 0 -17 64 7 68 13 3 16 -1 11 -14 -4 -12 -3 -15 5 -10 7
4 12 3 12 -3 0 -5 -6 -11 -12 -14 -7 -2 -10 -8 -5 -12 4 -5 18 2 32 15 27 25
35 51 10 30 -9 -7 -19 -9 -23 -5 -4 4 -1 10 6 12 6 3 12 11 12 18 0 7 9 15 20
18 11 3 18 1 14 -4 -3 -5 -1 -9 5 -9 5 0 17 -3 27 -7 12 -4 15 -3 10 5 -4 7
-2 12 3 12 6 0 11 -3 11 -7 1 -25 17 -33 41 -20 13 7 25 18 27 25 2 14 -14 16
-23 3 -3 -6 -17 -6 -35 1 -17 5 -27 14 -24 20 4 6 -2 8 -16 3 -12 -4 -28 -8
-34 -9 -6 -1 -16 -5 -23 -9 -6 -4 -15 -2 -19 4 -4 7 -3 9 4 5 5 -3 12 -1 14 6
3 7 23 12 50 13 24 0 45 5 45 10 5 63 4 218 -1 222 -3 4 -6 1 -6 -6z m-100
-270 c0 -6 -4 -13 -10 -16 -5 -3 -10 -1 -10 5 0 6 -5 8 -12 4 -7 -4 -8 -3 -4
4 9 14 36 16 36 3z m17 -113 c-3 -8 -6 -5 -6 6 -1 11 2 17 5 13 3 -3 4 -12 1
-19z"/>
<path d="M6238 2453 c7 -3 16 -2 19 1 4 3 -2 6 -13 5 -11 0 -14 -3 -6 -6z"/>
<path d="M1886 2441 c-3 -5 1 -11 9 -15 9 -3 15 0 15 9 0 16 -16 20 -24 6z"/>
<path d="M3443 2435 c0 -10 6 -14 14 -10 8 3 17 5 19 5 2 0 4 5 4 10 0 6 -8
10 -18 10 -10 0 -19 -7 -19 -15z"/>
<path d="M3516 2438 c7 -11 54 -10 54 1 0 5 -13 8 -29 7 -16 0 -27 -4 -25 -8z"/>
<path d="M4108 2443 c12 -2 30 -2 40 0 9 3 -1 5 -23 4 -22 0 -30 -2 -17 -4z"/>
<path d="M4716 2441 c-4 -5 3 -7 14 -4 23 6 26 13 6 13 -8 0 -17 -4 -20 -9z"/>
<path d="M4768 2443 c7 -3 16 -2 19 1 4 3 -2 6 -13 5 -11 0 -14 -3 -6 -6z"/>
<path d="M4800 2433 c0 -17 21 -26 51 -21 18 3 16 5 -15 19 -30 14 -36 14 -36
2z"/>
<path d="M5970 2440 c0 -5 -7 -10 -17 -10 -9 0 -14 -3 -10 -6 8 -8 47 5 47 17
0 5 -4 9 -10 9 -5 0 -10 -4 -10 -10z"/>
<path d="M6158 2439 c-3 -8 -2 -23 2 -33 5 -15 8 -16 12 -5 3 8 2 23 -2 33 -5
15 -8 16 -12 5z"/>
<path d="M6288 2443 c7 -3 16 -2 19 1 4 3 -2 6 -13 5 -11 0 -14 -3 -6 -6z"/>
<path d="M6350 2440 c0 -5 5 -10 10 -10 6 0 10 5 10 10 0 6 -4 10 -10 10 -5 0
-10 -4 -10 -10z"/>
<path d="M886 2418 c-8 -30 -8 -1186 0 -1215 4 -13 10 -23 15 -23 5 0 6 6 3
14 -4 9 3 14 20 14 14 0 26 -4 26 -9 0 -5 -7 -9 -16 -9 -8 0 -12 -4 -9 -10 11
-18 35 -11 35 11 0 20 4 21 85 18 l85 -4 2 255 3 255 105 3 105 3 -1 101 0
102 -105 1 -104 0 -2 244 c-1 134 -4 250 -7 257 -3 8 -13 14 -23 13 -16 0 -16
-1 2 -9 13 -6 -18 -9 -87 -9 -66 -1 -108 3 -108 9 0 19 -18 10 -24 -12z"/>
<path d="M958 2433 c18 -2 45 -2 60 0 15 2 0 4 -33 4 -33 0 -45 -2 -27 -4z"/>
<path d="M1683 2433 c9 -2 25 -2 35 0 9 3 1 5 -18 5 -19 0 -27 -2 -17 -5z"/>
<path d="M2953 2422 c1 -14 6 -21 14 -18 7 3 13 0 13 -7 0 -8 4 -7 9 3 12 18
3 33 -14 26 -8 -3 -16 0 -18 7 -3 7 -4 2 -4 -11z"/>
<path d="M3073 2433 c-14 -5 -18 -33 -5 -33 4 0 14 5 22 10 17 11 2 30 -17 23z"/>
<path d="M4663 2433 c9 -2 23 -2 30 0 6 3 -1 5 -18 5 -16 0 -22 -2 -12 -5z"/>
<path d="M6219 2433 c-1 -4 -1 -51 -1 -103 l1 -95 43 -7 c24 -4 55 -10 70 -12
15 -3 46 -13 70 -24 24 -10 51 -22 61 -25 9 -4 17 -12 16 -19 0 -10 -2 -10 -6
0 -6 14 -33 16 -33 2 0 -5 4 -10 10 -10 5 0 7 -7 3 -16 -5 -14 -3 -15 16 -4
18 9 21 17 15 33 -13 38 -17 188 -5 200 6 6 11 22 11 35 0 14 5 22 13 20 6 -3
12 -11 12 -19 0 -8 9 -13 20 -12 11 1 14 0 8 -3 -17 -8 -16 -32 2 -50 13 -14
15 -10 15 31 0 30 -4 44 -11 40 -5 -4 -18 2 -28 14 -21 24 -41 11 -42 -28 0
-24 -1 -24 -8 -6 -6 15 -27 25 -77 37 -88 22 -174 32 -175 21z"/>
<path d="M4045 2419 c4 -6 13 -8 21 -5 7 3 16 1 20 -5 3 -6 12 -8 19 -5 7 2
25 -2 39 -9 15 -8 42 -18 60 -24 28 -7 34 -6 32 6 -3 21 -27 33 -53 27 -28 -7
-51 5 -32 17 9 5 -10 9 -49 9 -42 0 -61 -4 -57 -11z"/>
<path d="M1508 2413 c-13 -3 -18 -15 -18 -44 0 -36 2 -39 27 -39 21 0 24 3 15
12 -7 7 -11 26 -11 43 1 23 3 25 6 8 4 -22 23 -33 23 -14 0 16 -12 41 -19 40
-3 -1 -14 -3 -23 -6z"/>
<path d="M1628 2173 l-3 -248 -112 -2 c-83 -2 -113 1 -113 10 0 7 -4 6 -10 -3
-8 -12 -10 -11 -10 6 0 24 -24 49 -39 40 -5 -4 -14 2 -20 11 -8 13 -13 15 -18
6 -5 -6 -26 -12 -48 -13 -66 -3 -75 -1 -69 15 5 11 0 15 -17 14 -13 0 -18 -3
-11 -6 6 -2 12 -16 12 -29 0 -19 4 -23 14 -17 8 4 39 6 68 3 l53 -4 -50 -7
-50 -6 65 -1 c36 0 59 2 52 5 -19 8 -4 22 18 16 20 -5 26 -18 13 -26 -5 -2 -2
-2 5 -1 9 3 11 -6 7 -34 -4 -30 -3 -33 4 -14 6 12 12 22 15 22 2 0 3 -38 3
-85 -1 -47 3 -86 8 -87 5 -2 8 25 6 60 -2 41 1 62 9 62 8 0 10 -22 8 -70 -3
-57 -1 -70 12 -71 8 0 57 0 108 1 l93 1 -2 -258 -1 -258 111 3 c102 3 110 2
104 -13 -4 -12 -2 -16 6 -14 7 3 12 8 11 13 -1 5 3 12 9 15 7 5 11 198 13 609
l3 602 -127 0 -128 0 -2 -247z m-211 -283 c-1 -11 -5 -20 -9 -20 -3 0 -6 9 -5
20 1 11 5 20 9 20 3 0 6 -9 5 -20z"/>
<path d="M2243 2398 c-2 -18 0 -20 7 -8 12 18 13 30 2 30 -4 0 -9 -10 -9 -22z"/>
<path d="M2342 2394 c7 -15 16 -20 30 -16 18 4 18 6 4 14 -9 5 -14 13 -11 18
3 5 -3 8 -14 7 -15 -1 -17 -5 -9 -23z"/>
<path d="M4320 2410 c0 -6 -9 -10 -19 -10 -14 0 -19 -6 -18 -20 1 -13 6 -19
15 -15 7 3 17 5 20 5 4 0 13 9 19 19 10 15 9 20 -2 25 -8 3 -15 1 -15 -4z"/>
<path d="M1567 2383 c-5 -26 -2 -42 7 -32 9 11 15 59 7 59 -5 0 -11 -12 -14
-27z"/>
<path d="M1911 2396 c-15 -18 -10 -78 7 -84 8 -2 12 11 12 47 0 55 -2 58 -19
37z"/>
<path d="M2275 2401 c-6 -11 9 -23 19 -14 9 9 7 23 -3 23 -6 0 -12 -4 -16 -9z"/>
<path d="M3220 2385 c0 -14 5 -25 10 -25 6 0 10 11 10 25 0 14 -4 25 -10 25
-5 0 -10 -11 -10 -25z"/>
<path d="M3380 2400 c-13 -8 -13 -10 1 -10 9 0 19 -7 23 -15 8 -21 19 -19 34
6 8 12 9 18 3 15 -5 -4 -12 -2 -16 4 -8 13 -25 13 -45 0z"/>
<path d="M5188 2364 c-2 -25 1 -52 6 -61 10 -19 14 -97 21 -388 6 -245 5 -239
18 -226 13 13 17 642 5 635 -4 -3 -9 -22 -9 -42 -2 -41 -2 -40 -15 76 -7 64
-21 68 -26 6z m39 -256 c-2 -13 -4 -3 -4 22 0 25 2 35 4 23 2 -13 2 -33 0 -45z
m0 -160 c-2 -13 -4 -3 -4 22 0 25 2 35 4 23 2 -13 2 -33 0 -45z m0 -160 c-2
-13 -4 -3 -4 22 0 25 2 35 4 23 2 -13 2 -33 0 -45z"/>
<path d="M808 2393 c7 -3 16 -2 19 1 4 3 -2 6 -13 5 -11 0 -14 -3 -6 -6z"/>
<path d="M3095 2390 c3 -5 8 -10 11 -10 2 0 4 5 4 10 0 6 -5 10 -11 10 -5 0
-7 -4 -4 -10z"/>
<path d="M4480 2390 c0 -5 5 -10 10 -10 6 0 10 5 10 10 0 6 -4 10 -10 10 -5 0
-10 -4 -10 -10z"/>
<path d="M4835 2390 c-3 -5 -1 -10 4 -10 6 0 11 5 11 10 0 6 -2 10 -4 10 -3 0
-8 -4 -11 -10z"/>
<path d="M6181 2375 c-1 -23 -3 -27 -11 -15 -8 12 -10 9 -10 -12 0 -16 4 -28
9 -28 5 0 11 -8 13 -17 3 -11 6 -7 9 12 2 17 2 44 -2 60 l-7 30 -1 -30z"/>
<path d="M2680 2375 c0 -8 5 -15 10 -15 6 0 10 7 10 15 0 8 -4 15 -10 15 -5 0
-10 -7 -10 -15z"/>
<path d="M1240 2370 c0 -5 5 -10 11 -10 5 0 7 5 4 10 -3 6 -8 10 -11 10 -2 0
-4 -4 -4 -10z"/>
<path d="M2651 2364 c0 -11 3 -14 6 -6 3 7 2 16 -1 19 -3 4 -6 -2 -5 -13z"/>
<path d="M1173 2358 c-6 -8 -7 -32 -3 -63 6 -43 8 -45 9 -14 0 19 5 39 10 45
5 5 6 17 2 27 -6 15 -9 16 -18 5z"/>
<path d="M2702 2350 c-7 -11 -8 -20 -3 -20 9 0 24 30 18 36 -1 2 -8 -6 -15
-16z"/>
<path d="M4485 2360 c4 -6 11 -8 16 -5 14 9 11 15 -7 15 -8 0 -12 -5 -9 -10z"/>
<path d="M840 2345 c0 -16 16 -20 24 -6 3 5 -1 11 -9 15 -9 3 -15 0 -15 -9z"/>
<path d="M3440 2350 c0 -6 -4 -8 -10 -5 -5 3 -10 1 -10 -5 0 -7 6 -10 14 -7
10 4 12 0 8 -16 -3 -12 -1 -19 3 -14 13 12 16 45 5 52 -6 3 -10 1 -10 -5z"/>
<path d="M4840 2350 c0 -5 5 -10 10 -10 7 0 9 -114 8 -327 l-3 -328 -2 323
c-2 203 -7 322 -13 322 -6 0 -10 -115 -10 -315 0 -173 -3 -315 -7 -315 -10 0
-10 -66 -1 -75 3 -4 9 7 13 23 3 17 13 33 20 36 20 7 27 647 8 665 -15 14 -23
14 -23 1z"/>
<path d="M5760 2349 c0 -5 5 -7 12 -3 8 5 9 2 4 -12 -17 -40 -17 -58 -2 -30
17 30 15 56 -4 56 -5 0 -10 -5 -10 -11z"/>
<path d="M6580 2351 c0 -10 19 -25 25 -20 1 2 -3 10 -11 17 -8 7 -14 8 -14 3z"/>
<path d="M3351 2332 c-8 -15 -7 -23 4 -32 18 -15 22 -13 27 19 4 30 -17 39
-31 13z"/>
<path d="M4336 2335 c-3 -9 -14 -15 -23 -13 -19 3 -25 -19 -10 -39 4 -6 22
-15 38 -18 16 -4 27 -10 24 -15 -3 -5 3 -7 12 -5 10 2 20 4 23 4 2 1 -12 12
-33 26 -40 28 -50 50 -17 40 16 -5 20 -2 20 14 0 24 -25 28 -34 6z"/>
<path d="M5285 2340 c-3 -5 -1 -10 4 -10 6 0 11 5 11 10 0 6 -2 10 -4 10 -3 0
-8 -4 -11 -10z"/>
<path d="M5562 2335 c-7 -8 -8 -15 -3 -15 5 0 12 -8 14 -17 3 -10 5 -3 6 15 1
36 1 37 -17 17z"/>
<path d="M6482 2310 c0 -19 2 -27 5 -17 2 9 2 25 0 35 -3 9 -5 1 -5 -18z"/>
<path d="M803 2270 c0 -36 2 -50 4 -32 2 17 2 47 0 65 -2 17 -4 3 -4 -33z"/>
<path d="M2170 2323 c0 -6 4 -14 10 -18 5 -3 6 -13 3 -22 -4 -11 -3 -14 5 -9
16 9 15 18 -3 42 -8 10 -15 14 -15 7z"/>
<path d="M4480 2278 c0 -38 3 -49 10 -38 13 20 13 90 0 90 -5 0 -10 -24 -10
-52z"/>
<path d="M4910 2015 c0 -203 4 -315 10 -315 6 0 10 112 10 315 0 203 -4 315
-10 315 -6 0 -10 -112 -10 -315z"/>
<path d="M5266 2025 c1 -170 3 -314 5 -320 6 -19 -13 -95 -24 -95 -6 0 -3 -8
6 -17 17 -17 19 -17 33 1 8 11 14 27 13 35 0 9 -5 4 -11 -12 -5 -15 -14 -24
-20 -21 -6 4 -5 10 3 15 11 7 14 75 16 351 2 200 -1 335 -6 323 -7 -17 -9 -15
-12 15 -2 19 -4 -104 -3 -275z m11 83 c-2 -13 -4 -3 -4 22 0 25 2 35 4 23 2
-13 2 -33 0 -45z m0 -160 c-2 -13 -4 -3 -4 22 0 25 2 35 4 23 2 -13 2 -33 0
-45z m0 -160 c-2 -13 -4 -3 -4 22 0 25 2 35 4 23 2 -13 2 -33 0 -45z"/>
<path d="M5729 2294 c-1 -31 -2 -34 -8 -15 -6 21 -8 22 -19 8 -9 -10 -10 -17
-2 -22 6 -3 8 -11 4 -16 -3 -5 -10 -7 -15 -4 -5 4 -4 -5 3 -20 l12 -26 20 20
c15 16 20 31 17 63 -4 56 -11 62 -12 12z m-5 -59 c-7 -16 -24 -21 -24 -6 0 8
7 13 27 20 1 1 0 -6 -3 -14z"/>
<path d="M2650 2311 c0 -5 5 -13 10 -16 6 -3 10 -2 10 4 0 5 -4 13 -10 16 -5
3 -10 2 -10 -4z"/>
<path d="M2700 2310 c0 -5 5 -10 10 -10 6 0 10 5 10 10 0 6 -4 10 -10 10 -5 0
-10 -4 -10 -10z"/>
<path d="M2080 2278 c1 -22 1 -23 15 -4 8 11 15 14 15 7 0 -7 5 -9 10 -6 18
11 10 25 -15 25 -19 0 -25 -5 -25 -22z"/>
<path d="M3425 2274 c-17 -12 -18 -16 -5 -24 8 -5 18 -6 24 -3 5 3 6 1 2 -5
-4 -7 -2 -12 3 -12 14 0 14 17 1 25 -5 3 -7 12 -3 20 6 19 3 18 -22 -1z"/>
<path d="M6140 2270 c0 -23 36 -63 50 -55 4 3 11 -1 13 -7 3 -7 6 -3 6 10 1
12 -4 22 -10 22 -6 0 -8 8 -4 20 5 15 2 18 -14 15 -12 -2 -21 0 -21 6 0 5 -4
9 -10 9 -5 0 -10 -9 -10 -20z"/>
<path d="M842 1830 c-1 -312 -5 -459 -13 -467 -7 -7 -8 -13 0 -17 6 -4 13 3
16 16 3 13 4 226 3 473 l-3 450 -3 -455z"/>
<path d="M2660 2280 c-8 -26 -7 -41 2 -32 6 6 8 16 5 24 -3 7 -6 11 -7 8z"/>
<path d="M6556 2265 c-3 -9 0 -15 9 -15 9 0 12 6 9 15 -4 8 -7 15 -9 15 -2 0
-5 -7 -9 -15z"/>
<path d="M2690 2261 c0 -5 5 -13 10 -16 6 -3 10 -2 10 4 0 5 -4 13 -10 16 -5
3 -10 2 -10 -4z"/>
<path d="M1480 2210 c0 -22 5 -40 10 -40 6 0 10 -32 10 -75 0 -53 -4 -75 -12
-75 -9 0 -8 -4 2 -10 8 -5 17 -10 20 -10 3 0 4 56 2 125 -3 101 -6 125 -18
125 -10 0 -14 -12 -14 -40z"/>
<path d="M1918 2113 c-3 -76 -1 -145 3 -153 7 -13 9 -13 10 0 2 27 -3 285 -6
288 -1 2 -5 -59 -7 -135z"/>
<path d="M3251 2234 c0 -11 3 -14 6 -6 3 7 2 16 -1 19 -3 4 -6 -2 -5 -13z"/>
<path d="M5597 2235 c-9 -30 -7 -114 4 -121 16 -10 21 22 12 82 -6 41 -11 53
-16 39z"/>
<path d="M6524 2228 c1 -14 -4 -22 -11 -20 -15 2 -17 -17 -3 -52 17 -44 30
-29 30 34 0 33 -4 60 -9 60 -4 0 -8 -10 -7 -22z m1 -48 c3 -5 1 -10 -4 -10 -6
0 -11 5 -11 10 0 6 2 10 4 10 3 0 8 -4 11 -10z"/>
<path d="M2670 2230 c0 -5 5 -10 10 -10 6 0 10 5 10 10 0 6 -4 10 -10 10 -5 0
-10 -4 -10 -10z"/>
<path d="M3411 2233 c0 -5 4 -17 9 -28 7 -17 9 -17 9 -3 1 12 6 15 18 11 11
-4 12 -8 5 -11 -7 -2 -12 -11 -12 -20 0 -15 2 -15 10 -2 8 13 10 12 10 -2 0
-10 7 -18 16 -18 8 0 12 5 9 10 -3 6 -1 10 4 10 6 0 11 -8 12 -17 0 -11 3 -13
6 -5 2 6 10 9 15 6 7 -5 8 -2 3 6 -6 10 -1 11 21 6 23 -5 26 -4 11 4 -9 6 -25
9 -35 6 -11 -4 -33 5 -58 24 -39 30 -55 36 -53 23z"/>
<path d="M2636 2214 c-3 -9 -6 -19 -6 -24 0 -12 58 -33 70 -25 18 11 -10 26
-35 19 -16 -5 -17 -4 -8 6 12 13 7 40 -7 40 -4 0 -11 -7 -14 -16z"/>
<path d="M2697 2216 c-8 -22 55 -48 103 -43 46 5 58 12 35 21 -9 3 -13 2 -10
-4 9 -15 -8 -12 -31 5 -24 18 -38 19 -31 1 4 -10 0 -12 -14 -9 -10 3 -19 10
-19 15 0 5 5 6 10 3 6 -3 10 -2 10 3 0 10 -23 22 -40 22 -4 0 -10 -6 -13 -14z
m33 0 c0 -3 -4 -8 -10 -11 -5 -3 -10 -1 -10 4 0 6 5 11 10 11 6 0 10 -2 10 -4z"/>
<path d="M5573 2195 c0 -22 2 -30 4 -17 2 12 2 30 0 40 -3 9 -5 -1 -4 -23z"/>
<path d="M4356 2207 c3 -10 9 -15 12 -12 3 3 0 11 -7 18 -10 9 -11 8 -5 -6z"/>
<path d="M4381 2204 c0 -11 3 -14 6 -6 3 7 2 16 -1 19 -3 4 -6 -2 -5 -13z"/>
<path d="M6217 2201 c-3 -15 -1 -18 11 -14 10 4 13 2 8 -5 -5 -8 -2 -10 9 -6
14 6 14 8 -2 21 -17 13 -17 14 2 5 32 -15 89 -22 103 -13 9 5 -6 10 -40 14
-29 3 -60 8 -69 12 -11 4 -18 0 -22 -14z"/>
<path d="M4431 2167 c1 -23 4 -32 6 -19 2 12 9 20 14 17 5 -4 9 3 9 13 0 11
-7 22 -15 26 -12 4 -15 -3 -14 -37z"/>
<path d="M5650 2196 c0 -9 5 -16 10 -16 6 0 10 4 10 9 0 6 -4 13 -10 16 -5 3
-10 -1 -10 -9z"/>
<path d="M6138 2203 c7 -3 16 -2 19 1 4 3 -2 6 -13 5 -11 0 -14 -3 -6 -6z"/>
<path d="M2611 2184 c0 -11 3 -14 6 -6 3 7 2 16 -1 19 -3 4 -6 -2 -5 -13z"/>
<path d="M3245 2190 c-3 -5 -1 -10 4 -10 6 0 11 5 11 10 0 6 -2 10 -4 10 -3 0
-8 -4 -11 -10z"/>
<path d="M3916 2192 c-9 -14 9 -31 23 -23 7 5 10 14 7 20 -8 13 -23 14 -30 3z"/>
<path d="M2580 2179 c0 -5 5 -7 10 -4 6 3 10 8 10 11 0 2 -4 4 -10 4 -5 0 -10
-5 -10 -11z"/>
<path d="M2487 2169 c-27 -16 -4 -37 38 -36 40 1 49 17 10 17 -31 0 -33 17 -2
23 21 4 20 4 -3 5 -14 1 -33 -3 -43 -9z"/>
<path d="M4389 2175 c-4 -5 2 -28 12 -50 l18 -40 0 33 c1 18 -3 31 -8 27 -5
-3 -11 5 -13 17 -2 13 -6 19 -9 13z"/>
<path d="M5685 2135 c5 -71 6 -72 15 -50 12 27 12 78 1 70 -5 -3 -12 3 -14 12
-3 10 -4 -4 -2 -32z"/>
<path d="M6286 2169 c26 -10 72 -11 78 -1 3 5 -18 8 -46 8 -32 0 -44 -3 -32
-7z"/>
<path d="M2860 2160 c-22 -7 -22 -8 -4 -9 19 -1 62 -37 63 -53 1 -5 1 -16 2
-25 0 -13 3 -11 10 7 7 17 7 26 -1 28 -5 2 -7 9 -3 15 3 7 3 9 -1 5 -10 -8
-47 23 -40 34 3 4 4 8 2 7 -2 -1 -14 -5 -28 -9z"/>
<path d="M3240 2161 c0 -6 4 -13 10 -16 6 -3 7 1 4 9 -7 18 -14 21 -14 7z"/>
<path d="M3653 2163 c31 -2 57 -8 57 -13 0 -10 -233 -18 -240 -8 -3 4 -11 3
-19 -1 -9 -6 -7 -10 8 -14 21 -5 21 -7 21 -455 0 -290 -4 -453 -10 -457 -5 -3
-10 -21 -10 -38 1 -27 2 -29 11 -14 6 10 8 25 5 33 -3 8 -2 14 3 14 8 0 26
-75 22 -92 0 -5 37 -8 84 -8 50 0 85 4 85 10 0 6 -18 10 -39 10 -22 0 -42 5
-44 13 -4 9 -6 9 -6 0 -1 -7 -10 -13 -21 -13 -16 0 -20 7 -21 38 l-2 37 -6
-40 c-6 -38 -7 -39 -19 -18 -6 12 -12 32 -11 45 1 23 1 23 9 -2 8 -24 8 -24 9
-2 1 32 29 28 34 -5 l4 -28 2 28 1 29 85 -3 c57 -2 89 1 97 9 9 9 9 12 0 12
-9 0 -12 107 -12 451 0 291 -4 457 -10 470 -9 16 -20 19 -68 17 l-57 -2 58 -3z"/>
<path d="M3734 2152 c2 -9 8 -18 16 -20 10 -4 9 -6 -1 -13 -12 -7 -12 -10 0
-21 8 -8 11 -8 7 -1 -3 6 -2 13 3 15 5 1 12 14 16 28 5 21 2 25 -19 26 -17 1
-23 -3 -22 -14z"/>
<path d="M3808 2158 c9 -9 15 -9 24 0 9 9 7 12 -12 12 -19 0 -21 -3 -12 -12z"/>
<path d="M4492 2140 c0 -19 2 -27 5 -17 2 9 2 25 0 35 -3 9 -5 1 -5 -18z"/>
<path d="M5164 1930 c0 -135 2 -190 3 -122 2 67 2 177 0 245 -1 67 -3 12 -3
-123z"/>
<path d="M6396 2151 c-11 -12 -14 -21 -7 -26 6 -3 11 1 11 9 0 8 8 20 18 25 9
6 12 11 6 11 -6 0 -19 -9 -28 -19z"/>
<path d="M3383 2135 c0 -36 14 -40 15 -5 0 17 -3 30 -7 30 -5 0 -8 -11 -8 -25z"/>
<path d="M3961 2156 c4 -4 17 -9 29 -11 13 -3 27 -10 31 -16 8 -14 39 -5 39
11 0 5 -8 10 -19 10 -10 0 -34 3 -52 6 -19 4 -31 4 -28 0z"/>
<path d="M2020 2126 c0 -14 -4 -28 -10 -31 -5 -3 -10 -12 -10 -18 0 -9 3 -8 8
1 5 7 17 10 28 6 15 -5 16 -4 4 5 -12 8 -12 13 -2 23 17 17 15 38 -3 38 -9 0
-15 -9 -15 -24z"/>
<path d="M6210 2135 c0 -8 7 -15 15 -15 8 0 15 7 15 15 0 8 -7 15 -15 15 -8 0
-15 -7 -15 -15z"/>
<path d="M6416 2133 c-6 -14 -5 -15 5 -6 7 7 10 15 7 18 -3 3 -9 -2 -12 -12z"/>
<path d="M2081 2120 c1 -14 -2 -33 -6 -43 -4 -10 -5 -21 -1 -24 3 -3 9 3 13
13 3 10 9 21 13 24 3 3 0 16 -7 30 l-14 25 2 -25z"/>
<path d="M2810 2130 c8 -5 22 -10 30 -10 13 0 13 1 0 10 -8 5 -22 10 -30 10
-13 0 -13 -1 0 -10z"/>
<path d="M3880 2130 c0 -5 7 -10 15 -10 8 0 15 5 15 10 0 6 -7 10 -15 10 -8 0
-15 -4 -15 -10z"/>
<path d="M3347 2123 c-4 -3 -7 -19 -7 -35 0 -17 -4 -27 -10 -23 -14 8 -13 -46
1 -65 9 -12 10 -11 5 5 -5 18 -5 18 6 4 11 -13 13 -4 14 53 0 37 -1 68 -1 68
-1 0 -5 -3 -8 -7z"/>
<path d="M3803 2114 c-3 -9 0 -20 8 -25 12 -7 12 -12 0 -31 -10 -16 -10 -23
-2 -26 15 -5 14 -32 -1 -32 -6 0 -8 -3 -5 -7 4 -3 -1 -11 -10 -18 -17 -13 -10
-35 11 -35 19 0 26 32 30 118 2 55 -1 72 -11 72 -8 0 -16 -7 -20 -16z"/>
<path d="M3968 2118 c17 -8 26 -8 34 0 9 9 4 12 -22 11 -33 0 -34 -1 -12 -11z"/>
<path d="M4080 2125 c0 -5 5 -17 10 -25 5 -8 10 -10 10 -5 0 6 -5 17 -10 25
-5 8 -10 11 -10 5z"/>
<path d="M4380 2121 c0 -6 4 -13 10 -16 6 -3 7 1 4 9 -7 18 -14 21 -14 7z"/>
<path d="M5971 2114 c0 -11 3 -14 6 -6 3 7 2 16 -1 19 -3 4 -6 -2 -5 -13z"/>
<path d="M2884 2112 c3 -5 2 -12 -4 -14 -5 -2 -6 -9 -1 -16 6 -10 10 -9 14 7
3 12 0 24 -5 28 -6 3 -8 1 -4 -5z"/>
<path d="M3440 2116 c0 -2 7 -7 16 -10 8 -3 12 -2 9 4 -6 10 -25 14 -25 6z"/>
<path d="M4436 2075 c2 -37 1 -42 -4 -20 -6 25 -9 27 -15 12 -12 -32 -8 -60 8
-54 8 4 17 2 20 -4 4 -5 11 -7 16 -4 5 4 9 -6 10 -22 0 -24 1 -25 9 -8 6 17 8
14 12 -15 l5 -35 1 36 c2 26 -3 39 -14 43 -13 5 -16 16 -12 56 4 36 1 50 -9
54 -8 3 -11 2 -8 -3 3 -5 1 -12 -4 -15 -5 -4 -12 2 -14 11 -3 10 -3 -4 -1 -32z"/>
<path d="M6427 2107 c-3 -8 1 -14 8 -14 7 0 11 6 8 14 -3 7 -6 13 -8 13 -2 0
-5 -6 -8 -13z"/>
<path d="M3262 2088 c7 -15 15 -23 17 -17 2 6 -4 18 -13 27 -15 15 -15 15 -4
-10z"/>
<path d="M3990 2100 c-20 -7 -17 -8 17 -7 24 1 43 5 43 10 0 9 -27 8 -60 -3z"/>
<path d="M4061 2094 c0 -11 3 -14 6 -6 3 7 2 16 -1 19 -3 4 -6 -2 -5 -13z"/>
<path d="M2410 2091 c0 -5 5 -13 10 -16 6 -3 10 -2 10 4 0 5 -4 13 -10 16 -5
3 -10 2 -10 -4z"/>
<path d="M5642 2047 c2 -31 8 -57 13 -57 13 1 8 91 -6 105 -7 7 -9 -8 -7 -48z"/>
<path d="M3391 2080 c-5 -63 -8 -139 -4 -115 3 16 9 35 14 41 6 7 6 26 0 50
-5 22 -10 32 -10 24z"/>
<path d="M3773 2050 c0 -25 2 -35 4 -22 2 12 2 32 0 45 -2 12 -4 2 -4 -23z"/>
<path d="M4013 2083 c-17 -6 -16 -40 1 -46 9 -4 13 4 14 24 0 16 0 29 -1 28
-1 0 -8 -3 -14 -6z"/>
<path d="M2396 2054 c-3 -8 -2 -12 4 -9 6 3 10 -3 10 -14 0 -23 -16 -29 -22
-9 -3 7 -7 5 -11 -6 -4 -9 -3 -15 2 -11 5 3 13 0 17 -6 9 -15 24 8 24 38 0 27
-16 39 -24 17z"/>
<path d="M4080 2057 c0 -8 -7 -17 -15 -21 -8 -3 -15 -12 -15 -20 0 -9 6 -13
13 -11 17 7 37 54 26 61 -5 3 -9 -1 -9 -9z"/>
<path d="M2075 2020 c-17 -33 -20 -74 -5 -65 6 3 10 17 10 31 0 14 5 34 10 45
6 10 8 19 6 19 -3 0 -12 -13 -21 -30z"/>
<path d="M2461 2024 c0 -11 3 -14 6 -6 3 7 2 16 -1 19 -3 4 -6 -2 -5 -13z"/>
<path d="M3420 2020 c0 -5 5 -10 11 -10 5 0 7 5 4 10 -3 6 -8 10 -11 10 -2 0
-4 -4 -4 -10z"/>
<path d="M1396 2011 c-3 -5 1 -12 10 -15 20 -8 29 -1 19 13 -8 13 -22 14 -29
2z"/>
<path d="M1994 2008 c-4 -6 -9 -26 -11 -44 -2 -25 1 -36 16 -43 16 -9 19 -6
24 26 4 20 2 42 -3 48 -6 7 -7 15 -3 18 3 4 1 7 -5 7 -6 0 -14 -5 -18 -12z"/>
<path d="M3910 2005 c-7 -8 -23 -15 -36 -15 -25 0 -40 -15 -24 -25 10 -6 64
10 110 32 17 9 20 13 8 13 -9 0 -23 2 -31 5 -7 3 -20 -1 -27 -10z"/>
<path d="M4082 2000 c-7 -11 -12 -28 -12 -37 1 -10 7 -3 16 16 16 38 14 50 -4
21z"/>
<path d="M6045 2010 c3 -5 11 -10 16 -10 6 0 7 5 4 10 -3 6 -11 10 -16 10 -6
0 -7 -4 -4 -10z"/>
<path d="M1340 2000 c-12 -8 -11 -10 7 -10 12 0 25 5 28 10 8 13 -15 13 -35 0z"/>
<path d="M3990 2006 c0 -2 7 -7 16 -10 8 -3 12 -2 9 4 -6 10 -25 14 -25 6z"/>
<path d="M4431 1994 c0 -11 3 -14 6 -6 3 7 2 16 -1 19 -3 4 -6 -2 -5 -13z"/>
<path d="M5691 2001 c-20 -13 -6 -62 16 -54 10 4 14 2 10 -4 -3 -5 0 -10 7
-10 11 0 12 5 3 24 -6 14 -16 22 -24 19 -11 -4 -11 -1 -3 14 12 22 11 23 -9
11z"/>
<path d="M6236 1996 c-27 -12 -27 -13 -7 -19 11 -3 19 -1 16 3 -3 5 7 13 22
18 16 6 21 10 13 10 -8 0 -28 -5 -44 -12z"/>
<path d="M3740 1990 c0 -5 5 -10 11 -10 5 0 7 5 4 10 -3 6 -8 10 -11 10 -2 0
-4 -4 -4 -10z"/>
<path d="M6285 1990 c-13 -6 -15 -9 -5 -9 8 0 22 4 30 9 18 12 2 12 -25 0z"/>
<path d="M1537 1977 c-11 -30 -9 -34 23 -34 17 0 30 4 30 9 0 4 -9 8 -19 8
-11 0 -21 8 -23 18 -3 16 -4 16 -11 -1z"/>
<path d="M1440 1964 c0 -8 7 -14 16 -14 8 0 12 -4 9 -10 -3 -5 -1 -10 4 -10
20 0 11 38 -9 43 -13 3 -20 0 -20 -9z"/>
<path d="M2410 1965 c0 -8 5 -15 10 -15 6 0 10 7 10 15 0 8 -4 15 -10 15 -5 0
-10 -7 -10 -15z"/>
<path d="M5591 1953 c1 -33 17 -77 19 -53 1 8 3 23 5 34 4 22 -4 46 -16 46 -5
0 -9 -12 -8 -27z"/>
<path d="M2998 1947 c-3 -19 -2 -25 4 -19 6 6 8 18 6 28 -3 14 -5 12 -10 -9z"/>
<path d="M4432 1950 c0 -14 2 -19 5 -12 2 6 2 18 0 25 -3 6 -5 1 -5 -13z"/>
<path d="M6210 1960 c13 -9 13 -10 0 -10 -8 0 -2 -7 14 -15 16 -9 34 -14 40
-11 6 2 3 5 -7 5 -11 1 -15 6 -11 13 4 7 3 8 -4 4 -7 -4 -12 -1 -12 8 0 9 -8
16 -17 16 -15 0 -16 -2 -3 -10z"/>
<path d="M6315 1960 c4 -6 -7 -8 -27 -5 l-33 5 29 -10 c21 -6 34 -6 44 3 12 9
14 8 10 -8 -2 -13 -10 -19 -23 -17 -15 2 -17 1 -6 -6 11 -8 11 -10 0 -15 -12
-4 -11 -6 0 -6 8 -1 22 -8 32 -17 12 -11 23 -13 34 -6 16 8 16 9 1 15 -10 4
-15 3 -11 -3 9 -14 -9 -12 -23 2 -17 17 -15 28 5 21 11 -5 14 -3 8 6 -6 10 -3
11 13 2 15 -8 23 -7 31 3 14 16 4 26 -25 26 -13 0 -26 5 -29 10 -3 6 -13 10
-21 10 -8 0 -12 -4 -9 -10z"/>
<path d="M1600 1949 c0 -5 5 -7 10 -4 6 3 10 8 10 11 0 2 -4 4 -10 4 -5 0 -10
-5 -10 -11z"/>
<path d="M4451 1944 c0 -11 3 -14 6 -6 3 7 2 16 -1 19 -3 4 -6 -2 -5 -13z"/>
<path d="M6168 1953 c7 -3 16 -2 19 1 4 3 -2 6 -13 5 -11 0 -14 -3 -6 -6z"/>
<path d="M3960 1941 c0 -4 -15 -13 -32 -18 -32 -10 -32 -10 12 -7 25 1 45 3
45 4 0 1 8 3 18 5 9 2 15 -1 11 -6 -3 -5 0 -9 6 -9 6 0 8 -6 5 -12 -4 -7 2 -4
12 8 10 11 25 19 33 17 8 -2 2 4 -15 12 -33 16 -95 20 -95 6z"/>
<path d="M2910 1928 c0 -14 19 -47 21 -38 8 26 4 50 -7 50 -8 0 -14 -6 -14
-12z"/>
<path d="M1922 1905 c0 -16 2 -22 5 -12 2 9 2 23 0 30 -3 6 -5 -1 -5 -18z"/>
<path d="M2026 1914 c-10 -26 -6 -173 4 -148 7 19 12 164 5 164 -1 0 -6 -7 -9
-16z"/>
<path d="M2960 1921 c0 -6 4 -13 10 -16 6 -3 7 1 4 9 -7 18 -14 21 -14 7z"/>
<path d="M3332 1905 c0 -16 2 -22 5 -12 2 9 2 23 0 30 -3 6 -5 -1 -5 -18z"/>
<path d="M3799 1928 c0 -2 -2 -27 -3 -56 -2 -42 0 -50 10 -40 7 7 15 27 18 43
5 25 5 27 -4 10 -9 -17 -10 -14 -5 13 2 17 0 32 -5 32 -6 0 -10 -1 -11 -2z"/>
<path d="M3847 1923 c-13 -12 -7 -23 11 -23 10 0 19 7 19 15 0 15 -18 20 -30
8z"/>
<path d="M5638 1908 c8 -32 29 -52 35 -35 4 8 6 7 6 -3 1 -13 34 -50 44 -50 1
0 3 9 3 20 0 15 -5 19 -20 14 -14 -5 -18 -3 -13 9 3 9 -1 18 -9 21 -8 3 -14
15 -14 26 0 13 -7 20 -19 20 -15 0 -18 -5 -13 -22z"/>
<path d="M6411 1904 c11 -14 10 -18 -6 -27 -19 -10 -19 -10 0 -17 11 -4 20
-12 20 -19 0 -6 5 -10 10 -8 6 1 9 5 8 10 -4 11 12 8 27 -5 12 -11 12 -10 1 5
-7 9 -20 17 -27 17 -16 0 -19 16 -4 25 14 9 -7 35 -27 35 -13 0 -13 -3 -2 -16z"/>
<path d="M3771 1894 c0 -11 3 -14 6 -6 3 7 2 16 -1 19 -3 4 -6 -2 -5 -13z"/>
<path d="M3993 1890 c-1 -11 2 -20 7 -20 4 0 7 7 6 15 -3 23 -12 26 -13 5z"/>
<path d="M5730 1890 c0 -11 5 -20 10 -20 6 0 10 9 10 20 0 11 -4 20 -10 20 -5
0 -10 -9 -10 -20z"/>
<path d="M1945 1888 c-4 -11 -1 -24 9 -33 9 -9 16 -25 16 -36 0 -11 4 -18 9
-14 5 3 13 0 17 -6 4 -7 3 -9 -4 -5 -6 3 -13 2 -17 -3 -3 -6 3 -14 13 -20 15
-8 18 -5 20 17 1 14 -2 28 -7 31 -4 3 -18 24 -29 46 -16 32 -22 37 -27 23z"/>
<path d="M3306 1884 c-4 -9 -4 -19 -1 -22 2 -3 7 3 11 12 4 9 4 19 1 22 -2 3
-7 -3 -11 -12z"/>
<path d="M3910 1890 c0 -5 5 -10 11 -10 6 0 8 -7 5 -15 -5 -13 -1 -12 19 2 13
10 25 22 25 27 0 5 -7 2 -17 -5 -13 -11 -17 -11 -20 -1 -5 14 -23 16 -23 2z"/>
<path d="M2966 1820 c8 -88 8 -104 0 -150 -4 -24 -3 -30 4 -20 8 13 10 12 10
-3 0 -10 5 -15 10 -12 8 5 7 11 0 20 -9 11 -8 20 4 37 19 26 21 52 4 42 -7 -5
-9 -2 -5 9 3 8 1 29 -6 46 -8 23 -9 39 0 61 6 17 7 30 2 30 -5 0 -9 -6 -10
-12 0 -7 -5 -4 -10 7 -6 13 -7 -5 -3 -55z m15 -133 c-10 -9 -11 -8 -5 6 3 10
9 15 12 12 3 -3 0 -11 -7 -18z"/>
<path d="M3840 1880 c0 -5 5 -10 11 -10 5 0 7 5 4 10 -3 6 -8 10 -11 10 -2 0
-4 -4 -4 -10z"/>
<path d="M2051 1864 c0 -11 3 -14 6 -6 3 7 2 16 -1 19 -3 4 -6 -2 -5 -13z"/>
<path d="M3336 1848 c4 -18 2 -28 -5 -28 -6 0 -11 -17 -10 -42 1 -24 3 -35 6
-25 2 9 8 15 11 13 11 -7 13 75 2 93 -8 12 -9 9 -4 -11z"/>
<path d="M5751 1849 c-6 -11 -7 -19 -2 -19 5 0 11 4 13 10 2 6 9 6 18 0 13 -8
12 -11 -5 -24 -11 -9 -15 -16 -8 -16 6 0 14 4 18 10 3 5 12 7 20 3 22 -8 18 1
-13 29 -28 24 -29 25 -41 7z"/>
<path d="M1360 1811 c0 -29 4 -50 9 -47 8 5 4 86 -5 95 -2 2 -4 -19 -4 -48z"/>
<path d="M1919 1819 c-6 -125 -3 -465 4 -454 9 17 13 473 3 482 -3 3 -7 -9 -7
-28z"/>
<path d="M3377 1829 c4 -13 8 -18 11 -10 2 7 -1 18 -6 23 -8 8 -9 4 -5 -13z"/>
<path d="M5573 1815 c0 -22 2 -30 4 -17 2 12 2 30 0 40 -3 9 -5 -1 -4 -23z"/>
<path d="M2342 1810 c0 -19 2 -27 5 -17 2 9 2 25 0 35 -3 9 -5 1 -5 -18z"/>
<path d="M4317 1811 c-4 -18 -11 -30 -16 -27 -5 3 -11 -1 -15 -9 -6 -18 5 -20
21 -4 8 8 17 8 32 -1 20 -10 21 -9 12 7 -5 10 -13 29 -18 43 -10 24 -10 24
-16 -9z"/>
<path d="M3012 1810 c0 -14 2 -19 5 -12 2 6 2 18 0 25 -3 6 -5 1 -5 -13z"/>
<path d="M3750 1815 c0 -9 6 -22 13 -28 16 -16 47 -20 47 -7 0 6 -4 8 -10 5
-5 -3 -10 1 -10 9 0 10 -6 13 -17 9 -10 -4 -14 -2 -9 5 3 6 2 13 -4 17 -5 3
-10 -1 -10 -10z"/>
<path d="M4361 1814 c0 -11 3 -14 6 -6 3 7 2 16 -1 19 -3 4 -6 -2 -5 -13z"/>
<path d="M6464 1802 c10 -12 23 -19 28 -16 11 7 11 7 -22 24 -25 13 -25 13 -6
-8z"/>
<path d="M6517 1813 c-9 -9 12 -33 29 -33 17 0 18 12 2 28 -14 14 -22 15 -31
5z"/>
<path d="M5830 1800 c0 -7 -6 -10 -14 -7 -8 3 -16 -2 -19 -14 -3 -12 0 -19 9
-19 8 0 14 4 14 10 0 5 12 8 28 6 15 -2 19 -1 9 1 -9 2 -15 8 -12 13 3 5 1 11
-5 15 -5 3 -10 1 -10 -5z"/>
<path d="M3386 1777 c-5 -15 -6 -31 -2 -34 11 -11 18 5 14 34 l-4 28 -8 -28z"/>
<path d="M2904 1755 c4 -22 7 -50 7 -62 2 -42 19 -12 19 31 0 28 -6 48 -16 57
-15 12 -16 10 -10 -26z"/>
<path d="M5688 1783 c7 -3 16 -2 19 1 4 3 -2 6 -13 5 -11 0 -14 -3 -6 -6z"/>
<path d="M6520 1769 c0 -6 -4 -8 -9 -5 -5 4 -8 0 -7 -7 2 -18 46 -85 46 -71 0
5 -4 14 -9 20 -5 5 -12 20 -16 33 -6 20 -4 23 9 18 9 -4 16 -2 16 2 0 5 -7 11
-15 15 -8 3 -15 1 -15 -5z"/>
<path d="M6570 1749 c0 -24 23 -21 28 4 2 10 -3 17 -12 17 -10 0 -16 -9 -16
-21z"/>
<path d="M5842 1750 c-4 -3 -8 -13 -8 -22 -2 -23 34 -24 51 -1 8 11 18 14 31
8 13 -5 15 -9 6 -12 -6 -3 -10 -9 -6 -14 3 -5 -3 -9 -13 -9 -15 0 -15 -2 -4
-9 11 -7 20 -3 34 12 16 19 16 23 3 33 -9 6 -14 13 -12 15 6 6 -73 6 -82 -1z"/>
<path d="M2041 1734 c0 -11 3 -14 6 -6 3 7 2 16 -1 19 -3 4 -6 -2 -5 -13z"/>
<path d="M3762 1741 c-8 -5 -12 -16 -10 -24 2 -11 7 -14 16 -8 8 5 12 16 10
24 -2 11 -7 14 -16 8z"/>
<path d="M1360 1730 c0 -5 6 -11 13 -13 11 -5 -28 -11 -60 -10 -7 1 -13 -4
-13 -9 0 -7 14 -8 35 -5 21 3 33 2 30 -4 -4 -5 -52 -10 -108 -11 l-102 -2 105
-6 c64 -4 87 -7 60 -10 -28 -2 -35 -4 -20 -7 14 -2 52 1 85 6 37 5 48 9 28 10
-25 1 -31 5 -30 21 1 13 6 19 15 15 7 -3 17 -5 20 -5 4 0 0 -5 -8 -10 -12 -8
-11 -10 8 -10 34 0 26 17 -18 39 -22 10 -40 15 -40 11z"/>
<path d="M3301 1724 c0 -11 3 -14 6 -6 3 7 2 16 -1 19 -3 4 -6 -2 -5 -13z"/>
<path d="M4346 1731 c-4 -7 -5 -15 -2 -18 9 -9 19 4 14 18 -4 11 -6 11 -12 0z"/>
<path d="M5780 1730 c0 -5 5 -10 10 -10 6 0 10 5 10 10 0 6 -4 10 -10 10 -5 0
-10 -4 -10 -10z"/>
<path d="M5960 1732 c0 -5 -3 -17 -6 -25 -10 -27 67 -39 106 -16 13 7 13 9 0
10 -8 1 -23 1 -32 0 -10 -1 -18 3 -18 8 0 6 -5 11 -11 11 -5 0 -7 -5 -3 -11 4
-7 1 -10 -7 -7 -8 3 -14 10 -14 16 0 5 -3 14 -7 18 -5 4 -8 2 -8 -4z"/>
<path d="M6545 1730 c-4 -6 0 -19 8 -28 8 -9 21 -43 28 -75 8 -38 16 -54 22
-48 7 7 6 15 -1 24 -6 7 -9 31 -6 53 3 28 2 33 -5 19 -7 -17 -10 -15 -16 18
-8 40 -19 54 -30 37z"/>
<path d="M4380 1721 c0 -6 5 -13 10 -16 6 -3 10 1 10 9 0 9 -4 16 -10 16 -5 0
-10 -4 -10 -9z"/>
<path d="M1970 1681 c0 -43 15 -63 23 -32 6 25 -3 71 -14 71 -5 0 -9 -18 -9
-39z"/>
<path d="M3352 1697 c-9 -11 -10 -17 -2 -22 15 -9 23 -1 18 21 -3 15 -4 16
-16 1z"/>
<path d="M1553 1693 c9 -2 25 -2 35 0 9 3 1 5 -18 5 -19 0 -27 -2 -17 -5z"/>
<path d="M5784 1688 c-4 -7 -3 -10 1 -5 5 4 19 -3 32 -15 17 -16 23 -18 23 -7
0 32 -42 52 -56 27z"/>
<path d="M3765 1680 c-3 -5 -1 -10 4 -10 6 0 11 5 11 10 0 6 -2 10 -4 10 -3 0
-8 -4 -11 -10z"/>
<path d="M4512 1678 c-15 -15 -16 -48 -1 -48 6 0 8 -9 4 -22 -5 -19 -4 -20 5
-8 9 12 11 8 7 -17 -2 -18 1 -33 6 -33 7 0 0 128 -7 137 -1 2 -8 -3 -14 -9z"/>
<path d="M5201 1674 c0 -11 3 -14 6 -6 3 7 2 16 -1 19 -3 4 -6 -2 -5 -13z"/>
<path d="M5561 1674 c0 -11 3 -14 6 -6 3 7 2 16 -1 19 -3 4 -6 -2 -5 -13z"/>
<path d="M6621 1680 c0 -8 4 -24 9 -35 5 -13 9 -14 9 -5 0 8 -4 24 -9 35 -5
13 -9 14 -9 5z"/>
<path d="M1540 1617 c0 -43 4 -67 11 -67 8 0 9 19 5 62 -9 84 -16 86 -16 5z"/>
<path d="M1565 1671 c-3 -5 -1 -12 5 -16 5 -3 10 1 10 9 0 18 -6 21 -15 7z"/>
<path d="M3312 1655 c0 -16 2 -22 5 -12 2 9 2 23 0 30 -3 6 -5 -1 -5 -18z"/>
<path d="M4116 1661 c-17 -11 -33 -18 -37 -15 -4 2 -10 0 -13 -5 -9 -14 42
-23 64 -11 10 5 18 19 17 30 -1 11 -1 20 -2 20 0 0 -13 -9 -29 -19z m14 -16
c-7 -8 -18 -15 -24 -15 -6 0 -2 7 8 15 25 19 32 19 16 0z"/>
<path d="M4943 1660 c-10 -25 -6 -60 7 -60 14 0 19 28 11 57 l-9 28 -9 -25z"/>
<path d="M5925 1670 c-3 -6 1 -13 10 -16 19 -8 30 0 20 15 -8 14 -22 14 -30 1z"/>
<path d="M6070 1670 c-13 -9 -13 -11 0 -20 8 -5 26 -10 40 -11 23 0 23 -1 5
-9 -13 -5 0 -7 38 -5 47 2 56 1 47 -10 -8 -10 -7 -14 2 -17 10 -4 10 -9 -2
-23 -14 -17 -13 -18 8 -12 30 7 54 -1 45 -17 -4 -6 1 -4 11 4 17 13 18 12 14
-5 -2 -11 -11 -19 -20 -19 -14 1 -13 -3 4 -32 23 -39 24 -39 32 -19 3 8 0 14
-7 12 -7 -1 -10 5 -8 13 2 8 5 30 7 48 1 25 -1 30 -10 22 -17 -13 -29 0 -15
16 8 9 4 15 -13 24 -22 11 -22 10 -4 -4 11 -9 16 -16 10 -16 -18 0 -39 19 -39
36 0 19 -42 28 -52 11 -3 -5 -8 -5 -12 0 -3 5 -22 14 -41 20 l-35 11 45 -4
c33 -3 40 -2 25 5 -27 13 -57 13 -75 1z"/>
<path d="M2930 1650 c0 -19 3 -21 12 -12 9 9 9 15 0 24 -9 9 -12 7 -12 -12z"/>
<path d="M2040 1650 c0 -5 5 -10 11 -10 5 0 7 5 4 10 -3 6 -8 10 -11 10 -2 0
-4 -4 -4 -10z"/>
<path d="M2884 1646 c-3 -7 -1 -29 4 -47 9 -34 9 -34 10 14 0 47 -4 59 -14 33z"/>
<path d="M3337 1653 c-14 -13 -7 -63 8 -63 10 0 15 11 15 35 0 33 -8 43 -23
28z"/>
<path d="M3771 1652 c-1 -7 -5 -11 -10 -8 -11 7 -19 -46 -10 -70 5 -16 7 -13
11 11 2 17 2 -22 0 -86 -3 -81 -1 -118 7 -123 8 -5 11 25 11 113 0 77 -4 122
-11 127 -8 5 -8 9 1 14 7 4 10 14 7 21 -4 11 -6 11 -6 1z"/>
<path d="M4340 1650 c0 -5 5 -10 10 -10 6 0 10 5 10 10 0 6 -4 10 -10 10 -5 0
-10 -4 -10 -10z"/>
<path d="M1208 1643 c12 -2 32 -2 45 0 12 2 2 4 -23 4 -25 0 -35 -2 -22 -4z"/>
<path d="M1373 1633 c9 -2 23 -2 30 0 6 3 -1 5 -18 5 -16 0 -22 -2 -12 -5z"/>
<path d="M6557 1633 c-3 -5 -1 -17 4 -28 7 -17 8 -17 8 8 1 27 -4 34 -12 20z"/>
<path d="M1238 1623 c7 -3 16 -2 19 1 4 3 -2 6 -13 5 -11 0 -14 -3 -6 -6z"/>
<path d="M1480 1590 c0 -29 4 -40 15 -40 19 0 21 56 3 64 -7 4 -3 4 10 2 12
-2 20 0 16 5 -3 5 -14 9 -25 9 -16 0 -19 -7 -19 -40z"/>
<path d="M2438 1585 c3 -28 0 -50 -8 -60 -9 -11 -9 -15 -1 -15 7 0 9 -4 6 -10
-3 -5 -1 -10 4 -10 6 0 11 4 11 9 0 6 10 8 23 5 23 -4 91 5 84 12 -2 2 -24 8
-49 12 -36 7 -47 6 -55 -7 -7 -10 -8 4 -5 47 3 38 0 62 -6 62 -5 0 -7 -18 -4
-45z m75 -72 c-7 -2 -19 -2 -25 0 -7 3 -2 5 12 5 14 0 19 -2 13 -5z"/>
<path d="M3790 1623 c0 -6 7 -14 16 -17 14 -5 16 -27 15 -159 -1 -243 -2 -237
14 -237 11 0 15 13 16 43 1 23 2 51 3 62 1 11 -3 23 -9 27 -6 4 -10 65 -10
147 0 98 -3 137 -11 130 -6 -5 -15 -4 -22 3 -8 8 -12 9 -12 1z"/>
<path d="M5550 1621 c0 -6 4 -13 10 -16 6 -3 7 1 4 9 -7 18 -14 21 -14 7z"/>
<path d="M2922 1579 c8 -30 8 -43 -1 -52 -9 -9 -11 -8 -6 6 4 10 2 17 -4 17
-6 0 -10 -11 -9 -24 2 -22 28 -27 28 -4 0 5 4 7 9 4 5 -4 7 4 3 16 -3 14 -1
19 6 14 8 -5 10 2 6 24 -5 20 -3 30 6 30 7 0 10 -7 5 -17 -5 -15 -4 -16 6 -5
10 9 10 15 1 24 -14 14 -28 3 -35 -27 -4 -15 -5 -13 -6 8 0 15 -5 27 -10 27
-5 0 -4 -18 1 -41z"/>
<path d="M4060 1610 c0 -5 5 -10 10 -10 6 0 10 5 10 10 0 6 -4 10 -10 10 -5 0
-10 -4 -10 -10z"/>
<path d="M5596 1607 c3 -10 9 -15 12 -12 3 3 0 11 -7 18 -10 9 -11 8 -5 -6z"/>
<path d="M6080 1604 c0 -12 22 -24 46 -24 27 0 14 28 -16 32 -19 3 -30 0 -30
-8z"/>
<path d="M1230 1590 c0 -13 5 -20 13 -17 6 2 12 10 12 17 0 7 -6 15 -12 18 -8
2 -13 -5 -13 -18z"/>
<path d="M2011 1593 c-16 -32 -11 -73 10 -73 10 0 24 -8 31 -18 7 -10 20 -21
29 -24 13 -5 16 0 14 30 -2 20 -4 44 -4 52 -1 13 -2 13 -11 0 -8 -12 -10 -12
-11 5 0 11 -3 15 -5 8 -3 -7 0 -21 6 -32 8 -17 8 -21 -3 -21 -9 0 -19 18 -26
45 -12 50 -16 53 -30 28z"/>
<path d="M3993 1597 c-9 -15 1 -16 27 -2 l25 14 -23 -2 c-13 -1 -26 -5 -29
-10z"/>
<path d="M4824 1584 c-1 -13 2 -22 6 -19 5 3 11 -1 14 -7 5 -10 7 -10 12 1 5
10 8 10 14 1 4 -6 7 1 6 17 -1 22 -6 28 -26 30 -20 1 -25 -3 -26 -23z"/>
<path d="M5163 1570 c0 -25 2 -35 4 -22 2 12 2 32 0 45 -2 12 -4 2 -4 -23z"/>
<path d="M5217 1596 c-10 -25 -9 -56 2 -56 16 0 20 15 12 45 -6 24 -8 26 -14
11z"/>
<path d="M3938 1589 c-19 -11 -24 -54 -8 -64 6 -3 10 -15 10 -26 0 -11 -4 -18
-8 -15 -4 2 -8 -4 -8 -14 0 -10 5 -16 10 -13 5 4 7 -1 3 -11 -4 -10 -3 -15 3
-11 13 8 13 -1 -1 -28 -10 -21 -10 -21 6 -2 8 11 13 25 10 33 -3 8 0 10 6 6 8
-4 9 1 5 17 -6 21 -5 22 4 6 9 -14 7 -27 -8 -58 -13 -25 -15 -35 -6 -28 11 9
14 9 14 0 0 -7 5 -9 10 -6 6 3 10 2 10 -4 0 -6 7 -8 15 -4 17 6 14 29 -3 26
-15 -4 -26 37 -13 50 7 7 3 17 -15 34 -14 13 -22 28 -19 33 3 6 2 10 -4 10 -6
0 -14 11 -17 26 -5 18 -1 29 12 39 22 17 17 19 -8 4z"/>
<path d="M4492 1575 c0 -16 2 -22 5 -12 2 9 2 23 0 30 -3 6 -5 -1 -5 -18z"/>
<path d="M5552 1560 c0 -14 2 -19 5 -12 2 6 2 18 0 25 -3 6 -5 1 -5 -13z"/>
<path d="M5591 1564 c0 -11 3 -14 6 -6 3 7 2 16 -1 19 -3 4 -6 -2 -5 -13z"/>
<path d="M6611 1544 c0 -11 3 -14 6 -6 3 7 2 16 -1 19 -3 4 -6 -2 -5 -13z"/>
<path d="M3255 1531 c-3 -10 -3 -25 0 -34 4 -8 2 -18 -4 -22 -6 -3 -11 -1 -11
4 0 6 -4 11 -10 11 -5 0 -7 -6 -4 -14 3 -8 0 -17 -7 -22 -8 -4 -10 -3 -5 4 4
7 5 12 2 12 -3 0 -15 -20 -27 -45 -12 -25 -25 -45 -31 -45 -5 0 -7 -4 -3 -9 3
-5 -2 -17 -11 -25 -9 -9 -11 -16 -4 -16 19 0 59 54 60 80 0 19 3 22 9 11 7
-12 13 -12 24 -3 16 14 27 6 27 -19 0 -10 4 -20 9 -23 5 -4 7 20 4 56 -2 35
-4 75 -4 91 0 31 -5 35 -14 8z m6 -74 c-10 -9 -11 -8 -5 6 3 10 9 15 12 12 3
-3 0 -11 -7 -18z m-80 -80 c-10 -9 -11 -8 -5 6 3 10 9 15 12 12 3 -3 0 -11 -7
-18z"/>
<path d="M6080 1542 c0 -13 40 -33 52 -26 7 4 2 12 -13 20 -28 15 -39 17 -39
6z"/>
<path d="M6160 1539 c0 -5 5 -7 10 -4 6 3 10 8 10 11 0 2 -4 4 -10 4 -5 0 -10
-5 -10 -11z"/>
<path d="M3867 1533 c-11 -10 -8 -63 3 -63 7 0 7 -6 0 -19 -13 -24 -13 -61 -1
-61 6 0 9 -12 8 -27 -1 -19 3 -28 16 -31 16 -3 17 2 12 55 -3 32 -10 59 -15
61 -6 2 -6 10 0 22 20 38 1 88 -23 63z"/>
<path d="M4848 1523 c21 -15 33 -41 12 -28 -5 3 -10 1 -10 -5 0 -7 7 -9 15 -6
10 4 20 -3 27 -19 15 -34 28 -32 28 4 0 24 -4 29 -20 26 -11 -2 -21 0 -21 6
-1 5 -2 15 -3 22 0 6 -12 13 -26 13 l-25 1 23 -14z"/>
<path d="M4936 1532 c-3 -3 -6 -9 -6 -14 0 -11 37 -10 44 1 6 10 -30 22 -38
13z"/>
<path d="M1503 1450 c0 -47 2 -66 4 -42 2 23 2 61 0 85 -2 23 -4 4 -4 -43z"/>
<path d="M4374 1518 c3 -15 26 -23 26 -8 0 6 -4 9 -9 6 -5 -4 -12 -1 -14 4 -3
6 -4 5 -3 -2z"/>
<path d="M4481 1514 c0 -11 3 -14 6 -6 3 7 2 16 -1 19 -3 4 -6 -2 -5 -13z"/>
<path d="M4512 1500 c0 -19 2 -27 5 -17 2 9 2 25 0 35 -3 9 -5 1 -5 -18z"/>
<path d="M4543 1490 c0 -25 2 -35 4 -22 2 12 2 32 0 45 -2 12 -4 2 -4 -23z"/>
<path d="M5026 1515 c4 -8 10 -15 15 -15 5 0 9 7 9 15 0 8 -7 15 -15 15 -9 0
-12 -6 -9 -15z"/>
<path d="M5098 1523 c6 -2 18 -2 25 0 6 3 1 5 -13 5 -14 0 -19 -2 -12 -5z"/>
<path d="M5683 1515 c0 -8 4 -12 9 -9 5 3 6 10 3 15 -9 13 -12 11 -12 -6z"/>
<path d="M5723 1508 c8 -12 15 -14 23 -7 8 7 14 6 19 -1 3 -5 -1 -10 -9 -10
-9 0 -16 -8 -16 -19 0 -10 -7 -24 -16 -32 -8 -7 -22 -26 -30 -43 -10 -24 -12
-25 -7 -6 5 21 4 23 -9 13 -8 -7 -18 -10 -21 -6 -4 3 -7 2 -7 -4 0 -6 -7 -14
-16 -17 -8 -3 -13 -2 -10 2 8 13 -8 117 -18 114 -5 -2 -13 2 -17 10 -5 7 -6
-15 -4 -52 6 -81 7 -89 14 -88 28 3 33 -4 29 -42 -2 -26 1 -41 9 -45 7 -2 13
-8 12 -12 -3 -20 2 -27 11 -13 8 12 10 9 10 -12 0 -24 3 -26 30 -23 23 3 30 0
30 -13 0 -10 -5 -23 -12 -30 -6 -6 -9 -15 -5 -18 3 -4 13 1 22 10 9 9 20 14
25 11 4 -3 10 2 14 10 3 8 15 15 27 15 35 0 15 10 -27 14 -23 2 -39 9 -39 17
0 7 -7 14 -15 16 -12 4 -12 3 -2 -5 11 -7 10 -11 -4 -16 -9 -4 -22 -2 -28 4
-8 8 -6 9 7 4 22 -8 14 16 -12 35 -12 9 -16 22 -14 40 3 18 2 22 -5 13 -7 -11
-10 -10 -16 3 -9 25 -7 45 4 45 6 0 10 -8 11 -17 0 -10 3 -13 5 -6 3 7 11 10
19 7 8 -4 15 5 20 25 4 17 11 34 17 37 6 4 8 -1 5 -12 -4 -11 -11 -40 -18 -66
-7 -31 -15 -45 -23 -41 -6 3 -2 -3 8 -15 11 -12 25 -22 32 -22 7 0 18 -8 23
-17 6 -10 11 -15 11 -12 0 4 41 -6 91 -22 49 -16 94 -27 99 -24 4 3 28 1 53
-4 l46 -8 3 99 c2 54 2 103 0 108 -2 6 -22 10 -43 10 -22 0 -38 4 -35 8 2 4
-10 8 -29 8 -18 0 -40 6 -49 13 -22 18 -13 26 13 12 24 -13 35 -1 15 17 -9 8
-14 9 -14 2 0 -6 -5 -8 -10 -5 -6 4 -17 2 -25 -5 -10 -9 -23 -5 -57 16 -23 15
-37 29 -30 32 6 2 12 11 12 20 0 15 -2 15 -10 2 -9 -13 -12 -13 -23 2 -8 9
-23 16 -34 15 -17 -1 -19 -4 -10 -19z"/>
<path d="M6198 1523 c-10 -2 -18 -11 -18 -19 0 -21 32 -13 36 9 1 9 2 16 1 16
-1 -1 -10 -3 -19 -6z"/>
<path d="M5816 1499 c-23 -22 -19 -28 20 -34 16 -2 23 -2 17 1 -18 8 -16 25 2
18 8 -4 15 -1 15 5 0 6 -6 11 -14 11 -8 0 -16 4 -18 9 -1 4 -12 0 -22 -10z"/>
<path d="M2660 1502 c0 -8 122 -35 158 -35 12 1 22 -3 22 -8 0 -9 -15 -13 -33
-10 -5 1 -6 -3 -3 -8 4 -6 17 -6 36 1 31 10 41 28 15 28 -7 0 -18 7 -22 15 -9
15 -68 22 -95 10 -11 -4 -18 -3 -18 4 0 6 -13 11 -30 11 -16 0 -30 -3 -30 -8z"/>
<path d="M3286 1501 c-3 -5 0 -11 8 -14 15 -6 26 1 26 15 0 11 -27 10 -34 -1z"/>
<path d="M5972 1503 c-6 -3 -9 -9 -6 -15 4 -6 -10 -7 -40 -3 -29 5 -46 3 -46
-3 0 -12 62 -24 84 -16 9 3 33 3 54 -1 31 -6 34 -9 17 -15 -16 -7 -17 -9 -3
-9 9 -1 24 2 32 5 14 5 12 10 -9 30 -14 13 -29 24 -33 25 -4 0 -14 2 -22 3 -8
2 -21 1 -28 -1z"/>
<path d="M2535 1490 c-3 -5 1 -10 9 -10 9 0 16 5 16 10 0 6 -4 10 -9 10 -6 0
-13 -4 -16 -10z"/>
<path d="M5705 1493 c10 -8 17 -43 9 -43 -2 0 -13 6 -25 13 -17 10 -22 9 -35
-7 -18 -25 -18 -36 1 -36 8 0 15 5 15 12 0 9 3 9 11 1 8 -8 16 -7 29 4 21 18
21 55 0 60 -9 3 -11 1 -5 -4z"/>
<path d="M6230 1490 c-12 -7 -12 -12 -2 -22 9 -9 12 -9 12 1 0 7 5 9 10 6 6
-3 10 -2 10 4 0 15 -14 21 -30 11z"/>
<path d="M6570 1486 c0 -8 -5 -27 -12 -43 -6 -15 -11 -31 -10 -35 1 -5 -3 -8
-9 -8 -8 0 -8 -5 1 -15 7 -8 18 -15 24 -15 7 0 7 3 -2 8 -9 6 -10 16 -1 40 6
18 15 32 20 32 12 0 11 37 -1 45 -5 3 -10 -1 -10 -9z"/>
<path d="M4427 1483 c-4 -3 -7 -18 -7 -32 1 -25 1 -25 15 -7 23 30 15 63 -8
39z"/>
<path d="M5064 1467 c0 -13 6 -24 13 -24 7 0 10 4 8 8 -3 3 4 9 15 12 30 8 24
27 -9 27 -24 0 -29 -4 -27 -23z"/>
<path d="M5130 1475 c0 -8 2 -15 4 -15 2 0 6 7 10 15 3 8 1 15 -4 15 -6 0 -10
-7 -10 -15z"/>
<path d="M2476 1471 c-4 -6 3 -16 16 -22 18 -8 31 -6 53 5 17 9 23 16 14 16
-9 0 -30 3 -47 6 -17 3 -32 1 -36 -5z m31 -7 c-3 -3 -12 -4 -19 -1 -8 3 -5 6
6 6 11 1 17 -2 13 -5z"/>
<path d="M5534 1445 c-3 -14 -10 -23 -14 -20 -5 3 -12 0 -16 -6 -5 -8 -3 -9 6
-4 8 5 11 3 8 -6 -5 -15 19 -38 41 -39 11 0 10 5 -4 20 -12 14 -16 28 -12 50
8 36 0 40 -9 5z"/>
<path d="M2136 1442 c-4 -7 -4 -18 0 -24 6 -10 5 -10 -7 -1 -11 9 -18 8 -32
-2 -12 -8 -14 -15 -8 -20 6 -3 14 1 17 10 5 13 8 14 15 3 5 -8 1 -17 -13 -24
-14 -7 -17 -14 -9 -18 6 -4 11 -3 11 3 0 6 8 8 18 4 9 -3 14 -2 9 2 -4 5 -1
15 7 24 8 10 11 24 7 35 -5 14 -10 16 -15 8z"/>
<path d="M4366 1435 c-3 -9 -6 -22 -5 -28 0 -7 5 -1 10 12 5 13 8 26 5 28 -2
2 -6 -3 -10 -12z"/>
<path d="M5562 1430 c0 -14 2 -19 5 -12 2 6 2 18 0 25 -3 6 -5 1 -5 -13z"/>
<path d="M5975 1437 c-17 -13 -16 -15 13 -25 19 -7 32 -7 32 -1 0 18 25 9 48
-18 15 -18 22 -21 18 -10 -3 9 -1 17 4 17 6 0 11 -21 12 -47 1 -44 2 -45 5
-10 2 20 8 37 14 37 5 0 9 5 9 11 0 5 -4 7 -10 4 -5 -3 -10 -1 -10 6 0 6 -8 9
-20 6 -22 -6 -28 8 -7 16 6 3 -12 3 -40 2 -31 -2 -53 0 -53 6 0 6 5 7 12 3 7
-4 8 -3 4 4 -9 15 -8 15 -31 -1z"/>
<path d="M6601 1434 c0 -11 3 -14 6 -6 3 7 2 16 -1 19 -3 4 -6 -2 -5 -13z"/>
<path d="M4000 1431 c0 -6 4 -13 10 -16 6 -3 7 1 4 9 -7 18 -14 21 -14 7z"/>
<path d="M4385 1409 c-4 -13 -2 -25 5 -29 7 -4 10 -14 8 -21 -3 -8 2 -19 11
-26 14 -10 14 -15 2 -35 -13 -22 -13 -22 4 -8 16 14 17 13 12 -5 -3 -11 0 -31
7 -44 12 -21 12 -28 -1 -48 -9 -13 -13 -27 -9 -30 4 -4 9 3 13 15 3 12 10 22
15 22 5 0 6 -10 2 -22 -8 -27 -2 -23 16 11 8 15 8 21 1 17 -6 -4 -11 -2 -11 4
0 6 5 21 11 32 7 13 7 18 1 14 -6 -4 -10 2 -9 13 1 19 3 19 19 5 9 -9 18 -26
20 -37 2 -12 11 -23 21 -25 15 -3 17 3 15 32 -1 20 -6 36 -11 36 -4 0 -5 5 -1
11 4 7 0 9 -14 5 -24 -8 -37 17 -23 43 6 10 6 23 1 31 -5 8 -7 26 -5 40 3 14
2 18 -1 10 -4 -8 -10 -17 -13 -20 -11 -9 -32 -52 -23 -46 6 3 8 -8 7 -27 -2
-17 -3 -40 -4 -49 -2 -36 -17 -17 -16 21 0 22 -3 37 -8 34 -5 -3 -6 5 -2 17 5
15 4 20 -4 16 -7 -5 -11 3 -11 23 0 36 -16 49 -25 20z m93 -70 c-3 -8 -7 -3
-11 10 -4 17 -3 21 5 13 5 -5 8 -16 6 -23z"/>
<path d="M5057 1423 c-11 -11 -8 -55 3 -48 6 4 8 10 5 15 -3 4 3 7 11 6 9 0
18 7 19 17 3 17 -24 24 -38 10z"/>
<path d="M2156 1392 c-3 -6 -1 -14 5 -17 14 -9 20 -2 10 14 -6 8 -11 9 -15 3z"/>
<path d="M3321 1384 c0 -11 3 -14 6 -6 3 7 2 16 -1 19 -3 4 -6 -2 -5 -13z"/>
<path d="M4575 1379 c-4 -5 0 -18 9 -28 25 -28 19 -34 -13 -12 -36 26 -45 26
-31 1 6 -10 16 -17 24 -14 7 3 16 -2 20 -11 3 -9 11 -13 17 -9 8 4 9 3 5 -4
-4 -7 4 -23 18 -37 14 -14 25 -31 23 -37 -1 -7 15 -12 40 -13 27 0 39 3 35 10
-4 5 -7 15 -7 20 0 6 -15 10 -33 9 -17 0 -32 3 -32 7 0 4 -7 14 -15 23 -9 9
-11 17 -5 21 5 3 10 2 10 -4 0 -6 9 -15 20 -21 13 -7 4 11 -25 49 -26 34 -48
61 -50 61 -2 0 -7 -5 -10 -11z m55 -64 c-1 -11 -27 20 -41 50 -6 11 1 7 15
-10 14 -16 26 -34 26 -40z m72 -72 c-6 -3 -10 -8 -7 -13 3 -4 -6 -7 -19 -6
-32 2 -21 24 12 23 15 0 21 -2 14 -4z"/>
<path d="M3386 1361 c-8 -12 4 -70 15 -77 5 -3 9 15 9 40 0 42 -11 59 -24 37z"/>
<path d="M5505 1362 c-15 -10 -16 -29 -2 -29 7 0 13 9 13 19 0 10 0 18 -1 18
0 0 -4 -4 -10 -8z"/>
<path d="M6499 1335 c-1 -5 0 -19 1 -30 2 -17 0 -18 -15 -5 -16 14 -17 13 -11
-8 5 -16 4 -21 -6 -17 -7 3 -20 -8 -30 -25 -12 -22 -22 -28 -35 -23 -11 4 -15
2 -10 -3 13 -14 86 -13 80 2 -2 6 3 14 11 17 9 4 16 2 16 -3 0 -5 7 -7 15 -4
11 5 12 11 5 24 -6 12 -7 21 0 25 5 3 7 12 3 20 -3 8 0 15 6 15 6 0 11 -5 11
-12 0 -6 2 -9 5 -7 2 3 2 14 -1 26 -6 22 -43 29 -45 8z m-29 -84 c0 -5 -6 -14
-14 -20 -12 -10 -13 -8 -9 8 5 21 23 30 23 12z"/>
<path d="M2655 1331 c-3 -5 -1 -12 5 -16 5 -3 10 1 10 9 0 18 -6 21 -15 7z"/>
<path d="M3230 1330 c0 -5 5 -10 10 -10 6 0 10 5 10 10 0 6 -4 10 -10 10 -5 0
-10 -4 -10 -10z"/>
<path d="M4047 1334 c-3 -3 -3 -12 0 -20 4 -10 0 -12 -11 -8 -9 3 -16 10 -16
15 0 5 -5 9 -11 9 -8 0 -9 -4 0 -13 6 -8 8 -17 4 -21 -4 -4 1 -4 12 0 11 4 17
4 13 -1 -9 -9 20 -40 30 -31 3 4 0 11 -8 17 -10 5 -11 12 -5 17 13 9 18 42 7
42 -5 0 -11 -3 -15 -6z"/>
<path d="M2702 1316 c7 -8 15 -12 17 -11 5 6 -10 25 -20 25 -5 0 -4 -6 3 -14z"/>
<path d="M4386 1317 c3 -10 9 -15 12 -12 3 3 0 11 -7 18 -10 9 -11 8 -5 -6z"/>
<path d="M1911 1308 c-1 -10 -5 -18 -10 -18 -11 0 -1 -53 13 -62 7 -5 5 -8 -5
-8 -19 0 -29 -20 -29 -53 1 -19 3 -18 17 8 8 17 22 38 31 47 11 14 12 21 3 32
-9 11 -9 15 1 19 9 4 10 8 2 14 -6 4 -14 15 -17 23 -4 12 -6 11 -6 -2z"/>
<path d="M2692 1290 c7 -11 17 -20 22 -20 5 0 1 9 -9 20 -10 11 -20 20 -22 20
-2 0 2 -9 9 -20z"/>
<path d="M3130 1300 c17 -11 47 -14 36 -3 -3 4 -17 8 -29 10 -17 2 -19 1 -7
-7z"/>
<path d="M3440 1259 c0 -57 7 -60 19 -7 6 24 4 37 -6 46 -11 11 -13 4 -13 -39z"/>
<path d="M5050 1300 c0 -5 4 -10 9 -10 6 0 13 5 16 10 3 6 -1 10 -9 10 -9 0
-16 -4 -16 -10z"/>
<path d="M5460 1296 c0 -8 7 -22 17 -31 14 -14 14 -18 2 -26 -12 -8 -12 -11 1
-20 12 -8 9 -9 -10 -4 -24 7 -24 6 -8 -10 15 -16 18 -16 32 -3 9 9 25 13 40
11 20 -4 26 -1 26 12 0 17 -10 17 -54 -1 -16 -6 -18 -4 -13 10 4 9 0 30 -8 47
-17 32 -25 37 -25 15z"/>
<path d="M3775 1289 c-4 -6 -5 -12 -2 -15 2 -3 7 2 10 11 7 17 1 20 -8 4z"/>
<path d="M822 1277 c-9 -10 -6 -18 9 -31 12 -9 24 -14 27 -10 4 4 1 9 -5 11
-18 6 -16 23 2 23 8 0 15 5 15 10 0 15 -36 12 -48 -3z"/>
<path d="M1480 1250 c0 -33 3 -40 20 -40 12 0 20 7 20 18 0 9 3 27 6 40 5 19
2 22 -20 22 -24 0 -26 -4 -26 -40z"/>
<path d="M1541 1274 c0 -11 3 -14 6 -6 3 7 2 16 -1 19 -3 4 -6 -2 -5 -13z"/>
<path d="M1570 1272 c0 -12 -4 -22 -10 -22 -5 0 -10 -7 -10 -15 0 -8 4 -15 9
-15 11 0 26 59 17 67 -3 4 -6 -3 -6 -15z"/>
<path d="M5386 1269 c-14 -11 -26 -27 -26 -34 0 -9 -10 -13 -26 -12 -23 2 -27
-2 -30 -30 -2 -18 1 -33 6 -33 6 0 10 9 10 20 0 11 6 20 13 20 7 0 22 8 33 18
10 10 28 24 39 31 19 11 18 12 -5 6 -21 -5 -22 -4 -7 5 9 6 22 8 27 5 6 -3 10
-2 10 4 0 20 -18 20 -44 0z"/>
<path d="M5581 1273 c0 -11 3 -13 6 -5 2 6 9 10 14 6 5 -3 9 0 9 5 0 6 -7 11
-15 11 -8 0 -15 -8 -14 -17z"/>
<path d="M6580 1250 c0 -22 5 -40 10 -40 6 0 10 18 10 40 0 22 -4 40 -10 40
-5 0 -10 -18 -10 -40z"/>
<path d="M1590 1271 c0 -6 4 -13 10 -16 6 -3 7 1 4 9 -7 18 -14 21 -14 7z"/>
<path d="M3741 1264 c0 -11 3 -14 6 -6 3 7 2 16 -1 19 -3 4 -6 -2 -5 -13z"/>
<path d="M5436 1262 c-4 -11 -15 -24 -26 -27 -27 -9 -40 -28 -30 -45 7 -11 11
-8 20 14 6 18 15 26 24 23 21 -8 40 18 28 39 -9 16 -10 15 -16 -4z"/>
<path d="M1163 1254 c-15 -16 -16 -24 -4 -24 8 0 24 30 19 35 -2 2 -9 -3 -15
-11z"/>
<path d="M2080 1254 c0 -8 5 -12 10 -9 6 3 10 10 10 16 0 5 -4 9 -10 9 -5 0
-10 -7 -10 -16z"/>
<path d="M2124 1258 c3 -7 9 -21 12 -30 9 -26 32 -30 29 -5 -1 12 -3 28 -4 35
0 6 -10 12 -22 12 -13 0 -19 -5 -15 -12z"/>
<path d="M2235 1249 c3 -9 1 -20 -5 -24 -16 -10 -12 -25 5 -19 8 4 12 10 9 15
-3 5 -1 9 5 9 5 0 13 -4 16 -10 3 -5 12 -10 18 -10 7 0 6 4 -3 11 -12 8 -8 9
15 6 l30 -5 -30 21 c-38 28 -68 31 -60 6z"/>
<path d="M3057 1243 c-14 -13 -7 -33 11 -33 26 0 34 11 21 27 -13 14 -22 16
-32 6z"/>
<path d="M3759 1223 c-1 -18 -2 -39 -3 -45 -1 -7 -14 -16 -31 -19 l-30 -6 32
-2 c41 -1 58 25 44 71 l-9 33 -3 -32z"/>
<path d="M5621 1242 c-1 -7 -5 -10 -11 -7 -5 3 -10 -3 -10 -14 0 -12 5 -21 10
-21 14 0 23 25 17 42 -4 10 -6 10 -6 0z"/>
<path d="M6074 1237 c-8 -9 -8 -16 1 -24 16 -15 37 0 29 20 -7 20 -15 21 -30
4z"/>
<path d="M1533 1220 c1 -14 8 -25 15 -25 8 0 19 -8 26 -17 17 -23 26 -23 26 2
0 11 -4 20 -9 20 -5 0 -8 8 -6 18 1 9 0 11 -2 5 -7 -19 -41 -16 -47 5 -3 10
-4 6 -3 -8z"/>
<path d="M2680 1230 c-21 -7 -21 -8 -5 -9 11 0 27 4 35 9 18 11 5 11 -30 0z"/>
<path d="M4120 1220 c0 -20 -3 -25 -21 -38 -11 -7 -19 -19 -19 -25 0 -8 3 -7
9 2 5 7 13 11 19 7 6 -3 13 0 15 6 4 10 8 9 16 -2 6 -9 11 -10 11 -3 0 6 -6
18 -13 25 -8 7 -12 19 -9 26 2 6 1 12 -2 12 -3 0 -6 -4 -6 -10z"/>
<path d="M5074 1215 c-4 -8 -4 -22 0 -30 3 -8 1 -15 -3 -15 -5 0 -12 6 -14 13
-4 9 -6 9 -6 0 -1 -14 11 -23 40 -28 20 -4 20 -3 5 20 -9 13 -13 31 -10 39 3
9 3 16 0 16 -4 0 -9 -7 -12 -15z"/>
<path d="M1143 1199 c-1 -12 3 -16 13 -12 8 3 14 10 14 15 0 6 8 7 17 4 10 -4
14 -3 9 1 -15 15 -52 10 -53 -8z"/>
<path d="M2690 1211 c-8 -6 -17 -8 -21 -5 -4 2 -10 0 -14 -6 -4 -6 6 -10 23
-10 17 0 32 6 36 15 6 17 -2 19 -24 6z"/>
<path d="M6350 1210 c-13 -8 -12 -10 3 -10 9 0 17 5 17 10 0 12 -1 12 -20 0z"/>
<path d="M813 1170 c0 -25 2 -35 4 -22 2 12 2 32 0 45 -2 12 -4 2 -4 -23z"/>
<path d="M830 1200 c0 -5 5 -10 10 -10 6 0 10 5 10 10 0 6 -4 10 -10 10 -5 0
-10 -4 -10 -10z"/>
<path d="M861 1170 l1 -45 10 34 c6 23 6 37 -1 44 -8 8 -11 -2 -10 -33z"/>
<path d="M991 1193 c-7 -3 -22 -14 -33 -25 -19 -19 -19 -19 24 -16 35 2 43 7
43 22 0 21 -12 28 -34 19z"/>
<path d="M2380 1191 l25 -7 -25 -8 c-22 -7 -23 -9 -5 -13 10 -3 21 0 23 6 2 6
22 10 45 10 39 -1 40 -2 12 -8 -28 -7 -28 -8 15 -13 55 -6 57 -5 28 14 -13 8
-50 17 -83 21 -33 3 -49 2 -35 -2z"/>
<path d="M4167 1186 c-4 -10 -3 -15 3 -11 6 3 9 -2 7 -12 -1 -10 2 -19 8 -21
5 -1 10 12 11 29 1 18 -1 26 -6 19 -6 -10 -9 -9 -12 1 -3 9 -6 8 -11 -5z"/>
<path d="M4217 1187 c-3 -8 1 -14 9 -14 16 0 19 13 5 21 -5 3 -11 0 -14 -7z"/>
<path d="M4335 1190 c-3 -5 -1 -10 4 -10 6 0 11 5 11 10 0 6 -2 10 -4 10 -3 0
-8 -4 -11 -10z"/>
<path d="M4394 1171 c2 -43 18 -44 21 -1 1 19 0 29 -3 21 -3 -10 -6 -11 -12
-1 -5 7 -7 -1 -6 -19z"/>
<path d="M4737 1193 c-12 -11 -8 -23 8 -23 8 0 15 7 15 15 0 16 -12 20 -23 8z"/>
<path d="M6473 1184 c-18 -18 -16 -24 7 -24 11 0 20 5 20 10 0 6 14 10 32 10
39 0 34 5 -12 12 -23 4 -39 1 -47 -8z"/>
<path d="M1070 1176 c0 -8 -8 -17 -17 -19 -10 -3 2 -5 27 -5 25 0 37 2 28 5
-10 2 -18 11 -18 19 0 8 -4 14 -10 14 -5 0 -10 -6 -10 -14z"/>
<path d="M1610 1180 c0 -5 5 -10 10 -10 6 0 10 5 10 10 0 6 -4 10 -10 10 -5 0
-10 -4 -10 -10z"/>
<path d="M1650 1180 c0 -5 5 -10 10 -10 6 0 10 5 10 10 0 6 -4 10 -10 10 -5 0
-10 -4 -10 -10z"/>
<path d="M2280 1180 c0 -5 9 -10 20 -10 11 0 20 5 20 10 0 6 -9 10 -20 10 -11
0 -20 -4 -20 -10z"/>
<path d="M2828 1183 c7 -3 16 -2 19 1 4 3 -2 6 -13 5 -11 0 -14 -3 -6 -6z"/>
<path d="M3693 1183 c9 -2 23 -2 30 0 6 3 -1 5 -18 5 -16 0 -22 -2 -12 -5z"/>
<path d="M4600 1180 c25 -4 39 -8 31 -8 -8 -1 -12 -4 -9 -7 3 -3 13 -2 22 1
28 11 -2 24 -49 22 l-40 -1 45 -7z"/>
<path d="M5420 1174 c0 -8 5 -12 10 -9 6 3 10 10 10 16 0 5 -4 9 -10 9 -5 0
-10 -7 -10 -16z"/>
<path d="M5797 1176 c-22 -17 -15 -22 43 -30 25 -3 39 -3 32 0 -6 3 -9 10 -6
16 4 6 -4 8 -22 6 -16 -3 -23 -3 -16 -1 6 3 12 9 12 14 0 13 -22 11 -43 -5z"/>
<path d="M6062 1170 c0 -14 2 -19 5 -12 2 6 2 18 0 25 -3 6 -5 1 -5 -13z"/>
<path d="M6083 1171 c1 -13 7 -17 22 -14 16 4 17 3 5 -6 -9 -7 -10 -11 -3 -11
23 0 22 18 -1 34 -23 15 -25 14 -23 -3z"/>
<path d="M2530 1170 c8 -5 20 -10 25 -10 6 0 3 5 -5 10 -8 5 -19 10 -25 10 -5
0 -3 -5 5 -10z"/>
<path d="M2575 1170 c-3 -5 1 -10 9 -10 9 0 16 5 16 10 0 6 -4 10 -9 10 -6 0
-13 -4 -16 -10z"/>
<path d="M2702 1174 c9 -3 19 -13 22 -22 3 -12 4 -12 3 3 -1 12 -10 21 -22 22
-15 1 -15 0 -3 -3z"/>
<path d="M2980 1170 c14 -4 34 -8 45 -8 l20 -1 -20 9 c-11 5 -31 8 -45 8 l-25
0 25 -8z"/>
<path d="M4360 1170 c0 -5 5 -10 10 -10 6 0 10 5 10 10 0 6 -4 10 -10 10 -5 0
-10 -4 -10 -10z"/>
<path d="M4840 1170 c0 -5 5 -10 11 -10 5 0 7 5 4 10 -3 6 -8 10 -11 10 -2 0
-4 -4 -4 -10z"/>
<path d="M5130 1176 c0 -2 14 -6 30 -8 17 -3 30 -1 30 4 0 4 -13 8 -30 8 -16
0 -30 -2 -30 -4z"/>
<path d="M5880 1170 c0 -5 4 -10 9 -10 6 0 13 5 16 10 3 6 -1 10 -9 10 -9 0
-16 -4 -16 -10z"/>
<path d="M5960 1170 c8 -5 26 -9 40 -9 l25 1 -25 8 c-14 4 -32 8 -40 9 -13 1
-13 0 0 -9z"/>
<path d="M830 1156 c0 -9 5 -16 10 -16 6 0 10 4 10 9 0 6 -4 13 -10 16 -5 3
-10 -1 -10 -9z"/>
<path d="M4876 1148 c6 -20 5 -21 -10 -9 -9 8 -19 11 -23 7 -3 -3 0 -6 8 -6
12 0 12 -2 0 -9 -9 -6 2 -10 34 -13 26 -2 54 2 62 7 12 9 6 11 -23 8 -33 -2
-35 -1 -14 6 25 9 25 9 -5 11 -26 1 -27 3 -10 10 19 8 19 9 -3 9 -20 1 -22 -2
-16 -21z"/>
<path d="M5913 1163 c-15 -5 -17 -23 -4 -23 5 0 11 7 15 15 3 8 4 15 3 14 -1
0 -8 -3 -14 -6z"/>
<path d="M1810 1145 c0 -8 4 -15 10 -15 5 0 7 7 4 15 -4 8 -8 15 -10 15 -2 0
-4 -7 -4 -15z"/>
<path d="M2697 1146 c-4 -9 -2 -16 4 -16 6 0 7 -5 4 -11 -4 -6 -9 -8 -12 -5
-8 7 -43 -13 -43 -24 0 -15 38 -12 47 4 4 7 13 15 19 17 7 3 6 11 -2 27 -9 19
-13 20 -17 8z"/>
<path d="M4808 1153 c7 -3 16 -2 19 1 4 3 -2 6 -13 5 -11 0 -14 -3 -6 -6z"/>
<path d="M5138 1153 c6 -2 18 -2 25 0 6 3 1 5 -13 5 -14 0 -19 -2 -12 -5z"/>
<path d="M1850 1140 c0 -5 5 -10 11 -10 5 0 7 5 4 10 -3 6 -8 10 -11 10 -2 0
-4 -4 -4 -10z"/>
<path d="M2368 1143 c12 -2 32 -2 45 0 12 2 2 4 -23 4 -25 0 -35 -2 -22 -4z"/>
<path d="M4120 1140 c0 -5 5 -10 11 -10 5 0 7 5 4 10 -3 6 -8 10 -11 10 -2 0
-4 -4 -4 -10z"/>
<path d="M4260 1135 c-33 -9 -40 -14 -28 -19 29 -13 83 -3 86 17 4 19 3 20
-58 2z"/>
<path d="M5220 1141 c0 -4 11 -6 25 -3 14 2 25 6 25 8 0 2 -11 4 -25 4 -14 0
-25 -4 -25 -9z"/>
<path d="M6003 1143 c9 -3 17 -11 17 -19 0 -15 27 -19 49 -5 9 6 10 11 2 15
-6 4 -16 4 -23 0 -6 -4 -8 -3 -5 3 4 6 -7 10 -26 10 -18 0 -24 -2 -14 -4z"/>
<path d="M1608 1133 c7 -3 16 -2 19 1 4 3 -2 6 -13 5 -11 0 -14 -3 -6 -6z"/>
<path d="M5097 1124 c6 -15 23 -19 23 -5 0 5 -7 11 -14 14 -10 4 -13 1 -9 -9z"/>
<path d="M5918 1118 c-2 -6 -20 -17 -39 -24 -32 -12 -33 -13 -7 -13 27 -1 88
28 88 42 0 12 -38 8 -42 -5z"/>
<path d="M3408 1113 c7 -3 16 -2 19 1 4 3 -2 6 -13 5 -11 0 -14 -3 -6 -6z"/>
<path d="M4970 1100 c0 -5 9 -10 21 -10 11 0 17 5 14 10 -3 6 -13 10 -21 10
-8 0 -14 -4 -14 -10z"/>
<path d="M6080 1094 c0 -9 -8 -23 -17 -30 -13 -10 -14 -13 -4 -14 14 0 51 37
51 52 0 4 -7 8 -15 8 -8 0 -15 -7 -15 -16z"/>
<path d="M978 1083 c6 -2 18 -2 25 0 6 3 1 5 -13 5 -14 0 -19 -2 -12 -5z"/>
<path d="M1073 1083 c9 -2 23 -2 30 0 6 3 -1 5 -18 5 -16 0 -22 -2 -12 -5z"/>
<path d="M6143 1078 c2 -7 10 -13 17 -13 7 0 15 6 18 13 2 7 -5 12 -18 12 -13
0 -20 -5 -17 -12z"/>
<path d="M6210 1080 c0 -5 6 -10 14 -10 8 0 16 -6 19 -12 2 -7 8 -10 12 -6 4
4 2 14 -5 23 -14 17 -40 20 -40 5z"/>
<path d="M2848 1073 c7 -3 16 -2 19 1 4 3 -2 6 -13 5 -11 0 -14 -3 -6 -6z"/>
<path d="M4818 1073 c7 -3 16 -2 19 1 4 3 -2 6 -13 5 -11 0 -14 -3 -6 -6z"/>
<path d="M810 1060 c0 -5 5 -10 10 -10 6 0 10 5 10 10 0 6 -4 10 -10 10 -5 0
-10 -4 -10 -10z"/>
<path d="M2595 1060 c3 -5 8 -10 11 -10 2 0 4 5 4 10 0 6 -5 10 -11 10 -5 0
-7 -4 -4 -10z"/>
<path d="M5066 1061 c-7 -11 22 -23 35 -15 5 3 7 10 4 15 -8 12 -32 12 -39 0z"/>
<path d="M5948 1053 c6 -2 18 -2 25 0 6 3 1 5 -13 5 -14 0 -19 -2 -12 -5z"/>
</g>
</svg>
